<svg width="24" height="24" viewBox="0 0 24 24" fill="none" xmlns="http://www.w3.org/2000/svg">
<path d="M12.4833 18.7512C11.8746 18.6243 11.2658 19.005 11.1405 19.6397C11.0151 20.2562 11.3911 20.8727 12.0178 20.9996C12.6265 21.1265 13.2353 20.7457 13.3606 20.1111C13.486 19.4765 13.11 18.8781 12.4833 18.7512Z" fill="#F22279"/>
<path d="M12.0001 2.97614C8.27593 2.97614 5.23218 6.04049 5.23218 9.83013C5.23218 10.5917 5.35751 11.3351 5.59027 12.0604C5.75141 12.55 6.28854 12.822 6.78986 12.6588C7.27328 12.4956 7.54185 11.9516 7.38071 11.4439C7.18376 10.8818 7.09424 10.2834 7.11214 9.68507C7.18376 7.12842 9.22487 5.02508 11.7494 4.89816C14.5604 4.7531 16.888 7.01963 16.888 9.83013C16.888 12.4593 14.8469 14.6171 12.2865 14.7621C12.2865 14.7621 11.3376 14.8165 10.8721 14.889C10.6393 14.9253 10.4603 14.9616 10.3349 14.9797C10.2812 14.9978 10.2275 14.9434 10.2454 14.889L10.4066 14.0912L11.2839 9.99332C11.3913 9.48562 11.069 8.97791 10.5677 8.86912C10.0664 8.76033 9.56505 9.08671 9.45763 9.59441C9.45763 9.59441 7.3449 19.5672 7.327 19.676C7.21957 20.1837 7.54185 20.6914 8.04318 20.8002C8.5445 20.9089 9.04582 20.5826 9.15325 20.0749C9.17115 19.9661 9.45763 18.6424 9.45763 18.6424C9.67248 17.627 10.4961 16.8836 11.4629 16.7567C11.6778 16.7204 12.5193 16.666 12.5193 16.666C16.0107 16.394 18.7679 13.4385 18.7679 9.83013C18.7679 6.04049 15.7242 2.97614 12.0001 2.97614Z" fill="#111111"/>
</svg>
