<svg width="16" height="16" viewBox="0 0 16 16" fill="none" xmlns="http://www.w3.org/2000/svg">
<path d="M7.98332 4.49951V7.99147L6.23734 9.73746" stroke="#FFBB37" stroke-width="1.2" stroke-linecap="round" stroke-linejoin="round"/>
<path d="M14.2738 7.28468C13.8688 7.28273 13.5389 7.60947 13.537 8.01446C13.5354 8.33898 13.5052 8.66141 13.4478 8.97811C13.3754 9.37659 13.6399 9.75826 14.0383 9.83058C14.4368 9.9029 14.8185 9.63849 14.8908 9.24C14.9634 8.83993 15.0016 8.43223 15.0036 8.0215C15.0055 7.61651 14.6788 7.28662 14.2738 7.28468Z" fill="#FFBB37"/>
<path d="M13.7828 10.5237C13.4328 10.32 12.9839 10.4387 12.7802 10.7888C12.6184 11.067 12.432 11.3319 12.2226 11.5797C11.9612 11.8891 12 12.3517 12.3094 12.6132C12.6187 12.8746 13.0814 12.8357 13.3428 12.5264C13.6079 12.2126 13.8435 11.8777 14.048 11.5263C14.2516 11.1762 14.1329 10.7273 13.7828 10.5237Z" fill="#FFBB37"/>
<path d="M9.85967 13.2179C9.47867 13.3552 9.28116 13.7754 9.41851 14.1564C9.55585 14.5374 9.97606 14.7349 10.3571 14.5976C10.5474 14.529 10.7363 14.4516 10.9232 14.3654C11.1101 14.2792 11.2916 14.1857 11.4674 14.0854C11.8192 13.8848 11.9417 13.4369 11.741 13.0851C11.5403 12.7333 11.0925 12.6108 10.7407 12.8115C10.6015 12.8909 10.4575 12.9651 10.3089 13.0336C10.1603 13.1022 10.0105 13.1635 9.85967 13.2179Z" fill="#FFBB37"/>
<path d="M7.98332 14.2771C4.51191 14.2771 1.69778 11.463 1.69778 7.99159C1.69778 4.52018 4.51191 1.70605 7.98332 1.70605C10.4512 1.70605 12.587 3.12837 13.6155 5.19802V2.40445" stroke="#FFBB37" stroke-width="1.2" stroke-linecap="round" stroke-linejoin="round"/>
</svg>
