<svg width="20" height="20" viewBox="0 0 20 20" fill="none" xmlns="http://www.w3.org/2000/svg">
    <path fill-rule="evenodd" clip-rule="evenodd" d="M17.5 10C17.5 14.1421 14.1421 17.5 10 17.5C5.85786 17.5 2.5 14.1421 2.5 10C2.5 5.85786 5.85786 2.5 10 2.5C14.1421 2.5 17.5 5.85786 17.5 10ZM8.17381 7.11265C7.88092 6.81975 7.40605 6.81975 7.11315 7.11264C6.82026 7.40554 6.82026 7.88041 7.11315 8.1733L8.93984 10L7.11315 11.8267C6.82026 12.1196 6.82026 12.5944 7.11315 12.8873C7.40604 13.1802 7.88092 13.1802 8.17381 12.8873L10.0005 11.0607L11.8272 12.8873C12.1201 13.1802 12.5949 13.1802 12.8878 12.8873C13.1807 12.5944 13.1807 12.1196 12.8878 11.8267L11.0612 10L12.8878 8.1733C13.1807 7.88041 13.1807 7.40553 12.8878 7.11264C12.5949 6.81975 12.1201 6.81975 11.8272 7.11265L10.0005 8.93934L8.17381 7.11265Z" fill="#111111" fill-opacity="0.2"/>
</svg>
