<svg width="20" height="20" viewBox="0 0 20 20" fill="none" xmlns="http://www.w3.org/2000/svg">
<path d="M12.4997 7.50004H7.99967C7.72353 7.50004 7.49967 7.7239 7.49967 8.00004V12.5M12.4997 7.50004H16.1663C16.4425 7.50004 16.6663 7.7239 16.6663 8.00004V16.1667C16.6663 16.4429 16.4425 16.6667 16.1663 16.6667H7.99967C7.72353 16.6667 7.49967 16.4429 7.49967 16.1667V12.5M12.4997 7.50004V5.66671V3.83337C12.4997 3.55723 12.2758 3.33337 11.9997 3.33337H3.83301C3.55687 3.33337 3.33301 3.55723 3.33301 3.83337V12C3.33301 12.2762 3.55687 12.5 3.83301 12.5H7.49967" stroke="#111111" stroke-opacity="0.35" stroke-width="1.5" stroke-linecap="round" stroke-linejoin="round"/>
</svg>
