<svg width="20" height="20" viewBox="0 0 20 20" fill="none" xmlns="http://www.w3.org/2000/svg">
    <circle cx="10" cy="10" r="10" fill="#F8F8F8"/>
    <circle cx="10" cy="9.99992" r="4.16667" fill="#DDDDDD"/>
    <path d="M15.8333 11.6667C13.5321 11.6667 11.6667 13.5322 11.6667 15.8334C11.6667 18.1346 13.5321 20.0001 15.8333 20.0001C18.1345 20.0001 20 18.1346 20 15.8334C20 13.5322 18.1345 11.6667 15.8333 11.6667Z" fill="#EE4444"/>
    <path fill-rule="evenodd" clip-rule="evenodd" d="M14.1474 19.6449C13.8172 19.4986 13.5096 19.3107 13.2312 19.0879L15.7912 16.5279L14.4023 15.139L17.5193 12.022C17.8495 12.1682 18.1571 12.3561 18.4355 12.579L15.8755 15.139L17.2643 16.5279L14.1474 19.6449Z" fill="white"/>
</svg>
