<svg width="24" height="24" viewBox="0 0 24 24" fill="none" xmlns="http://www.w3.org/2000/svg">
<path d="M14.3669 4.70984C13.9682 4.82217 13.7361 5.23644 13.8484 5.63513C13.9607 6.03382 14.375 6.26596 14.7737 6.15363L14.3669 4.70984ZM15.8931 15.0001L15.8925 14.2501C15.4784 14.2504 15.1429 14.5863 15.1431 15.0005C15.1432 15.4146 15.479 15.7502 15.8931 15.7501L15.8931 15.0001ZM0.886449 18.0747C0.648226 18.4136 0.729804 18.8814 1.06866 19.1196C1.40751 19.3578 1.87533 19.2763 2.11355 18.9374L0.886449 18.0747ZM14.3869 18.9369C14.6252 19.2758 15.093 19.3573 15.4318 19.1191C15.7706 18.8808 15.8522 18.413 15.6139 18.0742L14.3869 18.9369ZM22.0292 18.9365C22.2672 19.2755 22.735 19.3574 23.074 19.1194C23.413 18.8814 23.4949 18.4136 23.2569 18.0746L22.0292 18.9365ZM12.3754 10.1251C12.3754 12.4033 10.5286 14.2501 8.2504 14.2501V15.7501C11.357 15.7501 13.8754 13.2317 13.8754 10.1251H12.3754ZM8.2504 14.2501C5.97223 14.2501 4.1254 12.4033 4.1254 10.1251H2.6254C2.6254 13.2317 5.1438 15.7501 8.2504 15.7501V14.2501ZM4.1254 10.1251C4.1254 7.84696 5.97223 6.00014 8.2504 6.00014V4.50014C5.1438 4.50014 2.6254 7.01854 2.6254 10.1251H4.1254ZM8.2504 6.00014C10.5286 6.00014 12.3754 7.84696 12.3754 10.1251H13.8754C13.8754 7.01854 11.357 4.50014 8.2504 4.50014V6.00014ZM14.7737 6.15363C15.341 5.99377 15.9361 5.95735 16.5187 6.04683L16.7464 4.56421C15.9519 4.4422 15.1406 4.49186 14.3669 4.70984L14.7737 6.15363ZM16.5187 6.04683C17.1014 6.13631 17.658 6.3496 18.1513 6.67234L18.9726 5.41715C18.3 4.97706 17.5409 4.68622 16.7464 4.56421L16.5187 6.04683ZM18.1513 6.67234C18.6446 6.99508 19.0629 7.41978 19.3782 7.91783L20.6456 7.11548C20.2157 6.43635 19.6452 5.85724 18.9726 5.41715L18.1513 6.67234ZM19.3782 7.91783C19.6935 8.41588 19.8985 8.97571 19.9792 9.55962L21.465 9.35421C21.355 8.558 21.0756 7.79462 20.6456 7.11548L19.3782 7.91783ZM19.9792 9.55962C20.0599 10.1435 20.0146 10.738 19.8462 11.3029L21.2837 11.7313C21.5133 10.961 21.5751 10.1504 21.465 9.35421L19.9792 9.55962ZM19.8462 11.3029C19.6778 11.8678 19.3904 12.3901 19.0032 12.8345L20.1342 13.8198C20.6622 13.2138 21.0542 12.5016 21.2837 11.7313L19.8462 11.3029ZM19.0032 12.8345C18.616 13.279 18.138 13.6353 17.6015 13.8795L18.2229 15.2447C18.9545 14.9118 19.6062 14.4259 20.1342 13.8198L19.0032 12.8345ZM17.6015 13.8795C17.065 14.1237 16.4824 14.2501 15.893 14.2501L15.8931 15.7501C16.6969 15.75 17.4914 15.5777 18.2229 15.2447L17.6015 13.8795ZM2.11355 18.9374C2.80572 17.9529 3.72463 17.1493 4.79268 16.5945L4.10129 15.2634C2.81967 15.929 1.71703 16.8933 0.886449 18.0747L2.11355 18.9374ZM4.79268 16.5945C5.86071 16.0398 7.04687 15.7502 8.25043 15.7501L8.25037 14.2501C6.80622 14.2502 5.38293 14.5977 4.10129 15.2634L4.79268 16.5945ZM8.25043 15.7501C9.45392 15.7501 10.6395 16.0396 11.7076 16.5943L12.3989 15.2631C11.1172 14.5975 9.69458 14.2501 8.25037 14.2501L8.25043 15.7501ZM11.7076 16.5943C12.7757 17.1489 13.6947 17.9524 14.3869 18.9369L15.6139 18.0742C14.7833 16.8928 13.6806 15.9286 12.3989 15.2631L11.7076 16.5943ZM15.8936 15.7501C17.0971 15.7493 18.283 16.0384 19.351 16.5931L20.0424 15.2619C18.7604 14.5961 17.337 14.2491 15.8925 14.2501L15.8936 15.7501ZM19.351 16.5931C20.4191 17.1477 21.3377 17.9515 22.0292 18.9365L23.2569 18.0746C22.4269 16.8924 21.3243 15.9276 20.0424 15.2619L19.351 16.5931Z" fill="#111111" fill-opacity="0.2"/>
</svg>
