<svg width="24" height="24" viewBox="0 0 24 24" fill="none" xmlns="http://www.w3.org/2000/svg">
    <path d="M19.6512 4.92799C18.217 4.25933 16.6939 3.772 15.104 3.5C14.9039 3.85134 14.6815 4.32733 14.5259 4.70133C12.8349 4.45199 11.1561 4.45199 9.48839 4.70133C9.33273 4.32733 9.09925 3.85134 8.91023 3.5C7.3093 3.772 5.78616 4.25933 4.36197 4.92799C1.48247 9.25731 0.704216 13.4846 1.09334 17.6553C3.0056 19.0719 4.85117 19.9333 6.66449 20.5C7.1092 19.888 7.50945 19.2306 7.8541 18.5393C7.19815 18.29 6.57555 17.984 5.97519 17.6213C6.13084 17.508 6.28649 17.3833 6.43102 17.2587C10.0554 18.9473 13.9811 18.9473 17.561 17.2587C17.7167 17.3833 17.8612 17.508 18.0169 17.6213C17.4165 17.984 16.7939 18.29 16.1379 18.5393C16.4826 19.2306 16.8829 19.888 17.3275 20.5C19.1398 19.9333 20.9964 19.0719 22.8987 17.6553C23.3767 12.8273 22.1416 8.63402 19.6512 4.92799ZM8.35439 15.0826C7.26483 15.0826 6.37541 14.074 6.37541 12.8387C6.37541 11.6034 7.2426 10.5946 8.35439 10.5946C9.45503 10.5946 10.3555 11.6034 10.3333 12.8387C10.3333 14.074 9.45503 15.0826 8.35439 15.0826ZM15.6599 15.0826C14.5703 15.0826 13.6798 14.074 13.6798 12.8387C13.6798 11.6034 14.5481 10.5946 15.6599 10.5946C16.7606 10.5946 17.6611 11.6034 17.6389 12.8387C17.6389 14.074 16.7717 15.0826 15.6599 15.0826Z" fill="#5765F2"/>
</svg>
