<svg width="24" height="24" viewBox="0 0 24 24" fill="none" xmlns="http://www.w3.org/2000/svg">
<path d="M9.05682 3.01483C8.87664 2.69706 8.5349 2.5 8.16402 2.5C7.79313 2.5 7.45139 2.69706 7.27122 3.01483L0.597932 14.8809C0.287723 15.4903 0.753037 16.1751 1.45164 16.1751H5.95346V20.662C5.95346 21.1193 6.34059 21.5 6.80591 21.5H9.44395C9.91052 21.5 10.2977 21.1193 10.2977 20.6632V16.1751H9.05682C8.55501 16.1809 8.12513 15.8243 8.048 15.3383C8.048 15.1862 8.048 15.0342 8.12493 14.8809L11.85 8.26311L9.05682 3.01483Z" fill="#39E09B"/>
<path d="M14.9445 3.01484C15.1248 2.6977 15.4662 2.50113 15.8366 2.50113C16.207 2.50113 16.5484 2.6977 16.7288 3.01484L23.4021 14.881C23.7123 15.4903 23.247 16.1751 22.5484 16.1751H18.126V20.662C18.126 21.1193 17.7376 21.5 17.271 21.5H14.4779C14.0081 21.4959 13.6283 21.1237 13.6242 20.6632V16.1751H14.8663C15.3681 16.1809 15.798 15.8244 15.8751 15.3383C15.8751 15.1863 15.8751 15.0342 15.7969 14.881L12.0731 8.26436L14.9445 3.01484Z" fill="#28BF7B"/>
</svg>
