<svg width="20" height="20" viewBox="0 0 20 20" fill="none" xmlns="http://www.w3.org/2000/svg">
<path fill-rule="evenodd" clip-rule="evenodd" d="M4.16732 2.08398C3.01672 2.08398 2.08398 3.01672 2.08398 4.16732C2.08398 5.31791 3.01672 6.25065 4.16732 6.25065C5.31791 6.25065 6.25065 5.31791 6.25065 4.16732C6.25065 3.01672 5.31791 2.08398 4.16732 2.08398ZM4.16732 7.91732C3.01672 7.91732 2.08398 8.85006 2.08398 10.0007C2.08398 11.1512 3.01672 12.084 4.16732 12.084C5.31791 12.084 6.25065 11.1512 6.25065 10.0007C6.25065 8.85006 5.31791 7.91732 4.16732 7.91732ZM2.08398 15.834C2.08398 14.6834 3.01672 13.7507 4.16732 13.7507C5.31791 13.7507 6.25065 14.6834 6.25065 15.834C6.25065 16.9846 5.31791 17.9173 4.16732 17.9173C3.01672 17.9173 2.08398 16.9846 2.08398 15.834ZM10.0007 2.08398C8.85006 2.08398 7.91732 3.01672 7.91732 4.16732C7.91732 5.31791 8.85006 6.25065 10.0007 6.25065C11.1512 6.25065 12.084 5.31791 12.084 4.16732C12.084 3.01672 11.1512 2.08398 10.0007 2.08398ZM10.0007 13.7507C8.85006 13.7507 7.91732 14.6834 7.91732 15.834C7.91732 16.9846 8.85006 17.9173 10.0007 17.9173C11.1512 17.9173 12.084 16.9846 12.084 15.834C12.084 14.6834 11.1512 13.7507 10.0007 13.7507ZM13.7507 4.16732C13.7507 3.01672 14.6834 2.08398 15.834 2.08398C16.9846 2.08398 17.9173 3.01672 17.9173 4.16732C17.9173 5.31791 16.9846 6.25065 15.834 6.25065C14.6834 6.25065 13.7507 5.31791 13.7507 4.16732ZM15.834 7.91732C14.6834 7.91732 13.7507 8.85006 13.7507 10.0007C13.7507 11.1512 14.6834 12.084 15.834 12.084C16.9846 12.084 17.9173 11.1512 17.9173 10.0007C17.9173 8.85006 16.9846 7.91732 15.834 7.91732Z" fill="url(#paint0_linear_4544_22401)"/>
<path d="M9.9996 7.64258L12.3566 9.9996L9.9996 12.3566L7.64258 9.9996L9.9996 7.64258Z" fill="black"/>
<path d="M15.8361 13.5L18.1931 15.857L15.8361 18.214L13.4791 15.857L15.8361 13.5Z" fill="black"/>
<defs>
<linearGradient id="paint0_linear_4544_22401" x1="17.9173" y1="2.08398" x2="2.08398" y2="17.9173" gradientUnits="userSpaceOnUse">
<stop stop-color="#79E0E8"/>
<stop offset="0.240823" stop-color="#BA946A"/>
<stop offset="0.501558" stop-color="#D39DC1"/>
<stop offset="0.690859" stop-color="#6787D1"/>
<stop offset="0.906947" stop-color="#B37DBA"/>
</linearGradient>
</defs>
</svg>
