<svg width="24" height="24" viewBox="0 0 24 24" fill="none" xmlns="http://www.w3.org/2000/svg">
<path fill-rule="evenodd" clip-rule="evenodd" d="M16.4365 4C16.9045 3.99989 17.368 4.09199 17.8004 4.27105C18.2328 4.4501 18.6257 4.7126 18.9567 5.04354C19.2876 5.37448 19.5501 5.76738 19.7292 6.1998C19.9082 6.63222 20.0003 7.09567 20.0002 7.56369C20.0001 8.03171 19.9078 8.49513 19.7285 8.92746C19.5493 9.35979 19.2866 9.75257 18.9555 10.0834L18.9553 10.0836L16.1828 12.856C15.852 13.1869 15.4592 13.4493 15.0269 13.6284C14.5947 13.8074 14.1314 13.8996 13.6635 13.8996C13.1956 13.8996 12.7323 13.8074 12.3 13.6284C11.8677 13.4493 11.475 13.1869 11.1441 12.856C10.8512 12.5631 10.3764 12.5631 10.0835 12.856C9.79058 13.1489 9.79058 13.6238 10.0835 13.9167C10.5536 14.3868 11.1117 14.7597 11.726 15.0142C12.3403 15.2686 12.9986 15.3996 13.6635 15.3996C14.3283 15.3996 14.9867 15.2686 15.601 15.0142C16.2152 14.7597 16.7734 14.3868 17.2435 13.9167L20.0157 11.1445L20.0159 11.1443C20.4863 10.6743 20.8595 10.1162 21.1142 9.50197C21.3689 8.88762 21.5001 8.22911 21.5002 7.56404C21.5004 6.89898 21.3695 6.2404 21.1151 5.62593C20.8606 5.01146 20.4876 4.45315 20.0173 3.98288C19.5471 3.51261 18.9887 3.1396 18.3743 2.88516C17.7598 2.63072 17.1012 2.49985 16.4362 2.5C15.7711 2.50015 15.1126 2.63134 14.4982 2.88606C13.884 3.14074 13.3259 3.51392 12.8559 3.9843L12.8557 3.98448L12.8557 3.98454L10.9152 5.92499C10.6223 6.21788 10.6223 6.69275 10.9152 6.98565C11.2081 7.27854 11.683 7.27854 11.9759 6.98565L13.9166 5.04496L13.9168 5.04471C14.2476 4.71362 14.6404 4.45094 15.0727 4.27168C15.5051 4.09243 15.9685 4.00011 16.4365 4ZM8.97329 10.3719C9.40556 10.1928 9.86886 10.1007 10.3367 10.1007C10.8046 10.1007 11.2679 10.1928 11.7002 10.3719C12.1325 10.5509 12.5253 10.8134 12.8561 11.1442C13.149 11.4371 13.6239 11.4371 13.9168 11.1442C14.2096 10.8513 14.2096 10.3764 13.9168 10.0835C13.4466 9.61341 12.8885 9.24048 12.2742 8.98605C11.66 8.73162 11.0016 8.60066 10.3367 8.60066C9.67188 8.60066 9.01352 8.73162 8.39926 8.98605C7.78501 9.24048 7.22688 9.61341 6.75674 10.0835L3.98456 12.8557L3.98449 12.8558L3.98431 12.856C3.51393 13.326 3.14075 13.884 2.88607 14.4983C2.63134 15.1126 2.50015 15.7711 2.5 16.4362C2.49985 17.1012 2.63073 17.7598 2.88517 18.3743C3.1396 18.9888 3.51262 19.5471 3.98289 20.0173C4.45316 20.4876 5.01148 20.8606 5.62595 21.1151C6.24043 21.3695 6.89901 21.5004 7.56407 21.5002C8.22914 21.5001 8.88766 21.3689 9.50201 21.1142C10.1163 20.8595 10.6743 20.4863 11.1443 20.0159L11.1446 20.0157L13.085 18.0752C13.3779 17.7823 13.3779 17.3075 13.085 17.0146C12.7921 16.7217 12.3173 16.7217 12.0244 17.0146L10.0837 18.9553L10.0834 18.9555C9.75262 19.2866 9.35984 19.5493 8.92751 19.7285C8.49517 19.9078 8.03175 20.0001 7.56372 20.0002C7.0957 20.0003 6.63224 19.9082 6.19982 19.7292C5.76739 19.5501 5.37449 19.2876 5.04355 18.9567C4.7126 18.6257 4.4501 18.2328 4.27105 17.8004C4.092 17.368 3.99989 16.9046 4 16.4365C4.00011 15.9685 4.09243 15.5051 4.27168 15.0728C4.45094 14.6404 4.71362 14.2477 5.04472 13.9169L5.04497 13.9166L7.8174 11.1442C8.14824 10.8134 8.54101 10.5509 8.97329 10.3719Z" fill="#3765DC"/>
</svg>
