<svg width="24" height="24" viewBox="0 0 24 24" fill="none" xmlns="http://www.w3.org/2000/svg">
<path fill-rule="evenodd" clip-rule="evenodd" d="M23 12C23 18.0752 18.0752 23 12 23C5.92487 23 1 18.0752 1 12C1 5.92487 5.92487 1 12 1C18.0752 1 23 5.92487 23 12ZM11.9625 3.34585C9.71471 3.34585 7.89251 5.16805 7.89251 7.41584V10.0559C7.89251 12.3037 9.71471 14.1259 11.9625 14.1259C12.278 14.1259 12.5851 14.0899 12.88 14.022C13.0571 13.9812 13.1067 13.7626 12.9753 13.6372L12.9533 13.6161L10.6086 11.3767C10.2451 11.0235 10.0192 10.5294 10.0192 9.98253V7.48918C10.0192 6.4159 10.8892 5.54585 11.9625 5.54585C13.0358 5.54585 13.9059 6.4159 13.9059 7.48918V8.33333C13.9059 8.49533 14.0372 8.62667 14.1992 8.62667H15.7392C15.9012 8.62667 16.0325 8.49533 16.0325 8.33333V7.41584C16.0325 5.16805 14.2103 3.34585 11.9625 3.34585ZM16.0333 16.3633C16.0333 18.6111 14.2111 20.4333 11.9633 20.4333C9.71552 20.4333 7.89333 18.6111 7.89333 16.3633V15.4467C7.89333 15.2847 8.02467 15.1533 8.18667 15.1533H9.72667C9.88866 15.1533 10.02 15.2847 10.02 15.4467V16.29C10.02 17.3633 10.89 18.2333 11.9633 18.2333C13.0366 18.2333 13.9067 17.3633 13.9067 16.29V13.7967C13.9067 13.2497 13.6807 12.7556 13.3171 12.4025L10.9725 10.1631L10.9505 10.142C10.819 10.0165 10.8688 9.79795 11.0459 9.75717C11.3407 9.68927 11.6479 9.65333 11.9633 9.65333C14.2111 9.65333 16.0333 11.4755 16.0333 13.7233V16.3633Z" fill="url(#paint0_linear)"/>
<defs>
<linearGradient id="paint0_linear" x1="12" y1="1" x2="12" y2="23" gradientUnits="userSpaceOnUse">
<stop stop-color="#F50083"/>
<stop offset="1" stop-color="#720497"/>
</linearGradient>
</defs>
</svg>
