<svg width="24" height="24" viewBox="0 0 24 24" fill="none" xmlns="http://www.w3.org/2000/svg">
<path d="M10.8027 18.0016C11.1776 18.0016 11.5151 18.3131 11.5151 18.7415C11.5151 19.1309 11.2151 19.4813 10.8027 19.4813C10.4278 19.4813 10.0904 19.1698 10.0904 18.7415C10.0904 18.3131 10.4278 18.0016 10.8027 18.0016ZM21.8254 13.4846C21.4505 13.4846 21.1131 13.173 21.1131 12.7447C21.1131 12.3553 21.413 12.0048 21.8254 12.0048C22.2004 12.0048 22.5378 12.3164 22.5378 12.7447C22.5378 13.1341 22.2004 13.4846 21.8254 13.4846ZM21.8254 10.4862C20.6257 10.4862 19.6509 11.4986 19.6509 12.7447C19.6509 12.9783 19.6884 13.212 19.7634 13.4456L12.6023 17.4175C12.1899 16.7945 11.5151 16.444 10.8027 16.444C9.97788 16.444 9.22804 16.9502 8.85311 17.6901L2.40444 14.1855C1.72958 13.7961 1.20469 12.6668 1.27967 11.5765C1.31716 11.0313 1.50463 10.603 1.76707 10.4472C1.95453 10.3304 2.14199 10.3694 2.40444 10.4862L2.44193 10.5251C4.16658 11.4597 9.75293 14.497 9.97788 14.6138C10.3528 14.7696 10.5403 14.8475 11.1776 14.5359L22.7253 8.30553C22.9127 8.22765 23.1002 8.07189 23.1002 7.79931C23.1002 7.44885 22.7628 7.29309 22.7628 7.29309C22.0879 6.98156 21.0756 6.47534 20.1008 6.00806C18.0012 4.99562 15.6017 3.82742 14.5519 3.24332C13.6521 2.73709 12.9023 3.16544 12.7898 3.24332L12.5274 3.36014C7.76584 5.8523 1.46713 9.08433 1.09221 9.31797C0.454842 9.70737 0.0424266 10.5251 0.00493432 11.5376C-0.0700503 13.1341 0.717288 14.8085 1.84206 15.3926L8.66565 19.053C8.81562 20.1433 9.75293 21 10.8027 21C12.0025 21 12.9398 20.0265 12.9773 18.7804L20.4757 14.5749C20.8506 14.8864 21.338 15.0422 21.8254 15.0422C23.0252 15.0422 24 14.0297 24 12.7836C24 11.4986 23.0252 10.4862 21.8254 10.4862Z" fill="#4285FD"/>
</svg>
