<svg width="24" height="24" viewBox="0 0 24 24" fill="none" xmlns="http://www.w3.org/2000/svg">
    <path d="M22.539 6.8467C22.2854 5.92899 21.543 5.20541 20.6014 4.95834C18.8811 4.49948 12 4.49948 12 4.49948C12 4.49948 5.11884 4.49948 3.39856 4.94069C2.47504 5.18776 1.71449 5.92899 1.46098 6.8467C1.00827 8.52329 1.00827 12 1.00827 12C1.00827 12 1.00827 15.4943 1.46098 17.1533C1.71449 18.071 2.45693 18.7946 3.39856 19.0417C5.13695 19.5005 12 19.5005 12 19.5005C12 19.5005 18.8811 19.5005 20.6014 19.0593C21.543 18.8122 22.2854 18.0886 22.539 17.1709C22.9917 15.4943 22.9917 12.0176 22.9917 12.0176C22.9917 12.0176 23.0098 8.52329 22.539 6.8467Z" fill="#FF0000"/>
    <path d="M9.80881 15.2121L15.531 12.0002L9.80881 8.78818V15.2121Z" fill="white"/>
</svg>
