<svg width="20" height="20" viewBox="0 0 20 20" fill="none" xmlns="http://www.w3.org/2000/svg">
<path d="M18.0008 14.3321H16.1787C16.2586 13.959 16.3066 13.5534 16.3066 13.1479V12.2394C16.1468 9.62753 14.2607 7.8917 11.5116 7.8917H8.37894C7.78756 7.84304 7.43593 7.3888 7.43593 6.82101C7.43593 6.22077 7.83551 5.70164 8.50681 5.70164H16.2746C17.0258 5.70164 17.6332 5.08518 17.6332 4.32271V2.3111C17.6332 2.18132 17.5373 2.08398 17.4094 2.08398H8.50681C5.7577 2.08398 3.87169 3.81981 3.71186 6.43166V7.11301C3.72784 7.37258 3.75981 7.61592 3.80776 7.85926H1.66602C2.11354 10.0493 3.88767 11.4607 6.36506 11.4607H11.192C11.8633 11.4607 12.6145 11.7689 12.6145 12.7747C12.6145 13.7805 11.8633 14.3159 11.16 14.3159H5.26223C4.51102 14.3159 3.90366 14.9323 3.90366 15.6948V17.6902C3.90366 17.82 3.99956 17.9173 4.12742 17.9173H13.3018C15.8847 17.9173 17.8156 16.5451 18.3327 14.3321H18.0008Z" fill="#EB3089"/>
</svg>
