<svg width="20" height="20" viewBox="0 0 20 20" fill="none" xmlns="http://www.w3.org/2000/svg">
    <path d="M19.1667 10.4212L17.9371 9.30103L16.3344 11.036C16.2381 11.1395 16.1194 11.2199 15.9871 11.271C15.8549 11.322 15.7126 11.3425 15.5712 11.3307L14.2568 11.2044C14.1626 11.1945 14.0674 11.2069 13.979 11.2405C13.8906 11.2742 13.8114 11.3282 13.748 11.3981L8.76186 16.805L9.99145 17.9167L15.6984 11.735C15.7716 11.6544 15.8657 11.5954 15.9703 11.5642C16.075 11.533 16.1862 11.5309 16.292 11.5581L17.4453 11.8361C17.5511 11.8605 17.6616 11.8571 17.7658 11.8261C17.8699 11.7951 17.964 11.7375 18.0388 11.6592L19.1667 10.4212Z"
          fill="url(#paint0_linear_5322_25702)"/>
    <path d="M16.5296 8.01234L15.3 6.89221L12.4508 9.98309C12.3545 10.0866 12.2358 10.167 12.1035 10.2181C11.9713 10.2692 11.829 10.2896 11.6876 10.2779L10.3732 10.1515C10.279 10.1416 10.1838 10.154 10.0954 10.1877C10.0069 10.2213 9.9278 10.2753 9.86443 10.3452L6.1248 14.3962L7.35438 15.5164L11.8063 10.6905C11.8795 10.61 11.9736 10.5509 12.0782 10.5198C12.1829 10.4886 12.2941 10.4865 12.3999 10.5137L13.5532 10.7916C13.6591 10.8161 13.7695 10.8127 13.8737 10.7816C13.9778 10.7506 14.0719 10.6931 14.1468 10.6147L16.5296 8.01234Z"
          fill="url(#paint1_linear_5322_25702)"/>
    <path d="M13.884 5.61219L12.6544 4.49207L8.55012 8.93047C8.45386 9.03402 8.33509 9.11439 8.20284 9.16547C8.07058 9.21655 7.92834 9.23699 7.78693 9.22524L6.47255 9.09891C6.37837 9.08898 6.28316 9.10136 6.19472 9.13503C6.10628 9.1687 6.02713 9.2227 5.96376 9.29261L3.47916 11.9877L4.70874 13.1078L7.90565 9.63791C7.97887 9.55738 8.07292 9.49831 8.17757 9.46713C8.28222 9.43595 8.39347 9.43385 8.49924 9.46105L9.6525 9.73898C9.75838 9.76347 9.86887 9.76004 9.973 9.72901C10.0771 9.69799 10.1713 9.64045 10.2461 9.56212L13.884 5.61219Z"
          fill="url(#paint2_linear_5322_25702)"/>
    <path d="M11.2466 3.2035L10.017 2.08337L4.65776 7.88614C4.5615 7.98969 4.44273 8.07007 4.31047 8.12115C4.17822 8.17223 4.03598 8.19267 3.89457 8.18091L2.58019 8.05458C2.486 8.04466 2.39079 8.05704 2.30235 8.09071C2.21392 8.12438 2.13477 8.17838 2.0714 8.24829L0.833334 9.57896L2.06292 10.6991L4.01329 8.58517C4.08651 8.50463 4.18056 8.44556 4.28521 8.41438C4.38986 8.3832 4.50111 8.3811 4.60688 8.4083L5.76014 8.68623C5.86602 8.71073 5.97651 8.70729 6.08064 8.67627C6.18477 8.64524 6.27891 8.5877 6.35373 8.50937L11.2466 3.2035Z"
          fill="url(#paint3_linear_5322_25702)"/>
    <defs>
        <linearGradient id="paint0_linear_5322_25702" x1="17.9439" y1="9.30776" x2="10.0497" y2="17.9773"
                        gradientUnits="userSpaceOnUse">
            <stop offset="0.21" stop-color="#02C86A"/>
            <stop offset="0.34" stop-color="#14EA85"/>
        </linearGradient>
        <linearGradient id="paint1_linear_5322_25702" x1="15.3094" y1="6.90063" x2="7.41438" y2="15.571"
                        gradientUnits="userSpaceOnUse">
            <stop offset="0.32" stop-color="#02C86A"/>
            <stop offset="0.51" stop-color="#11ED85"/>
        </linearGradient>
        <linearGradient id="paint2_linear_5322_25702" x1="12.6578" y1="4.49543" x2="4.767" y2="13.1608"
                        gradientUnits="userSpaceOnUse">
            <stop offset="0.5" stop-color="#1FD17D"/>
            <stop offset="0.64" stop-color="#2CE28C"/>
        </linearGradient>
        <linearGradient id="paint3_linear_5322_25702" x1="10.0179" y1="2.08422" x2="2.12376" y2="10.7546"
                        gradientUnits="userSpaceOnUse">
            <stop offset="0.65" stop-color="#1BC675"/>
            <stop offset="0.8" stop-color="#0FD879"/>
        </linearGradient>
    </defs>
</svg>
