<svg width="24" height="24" viewBox="0 0 24 24" fill="none" xmlns="http://www.w3.org/2000/svg">
    <path d="M12 23C18.0751 23 23 18.0751 23 12C23 5.92487 18.0751 1 12 1C5.92487 1 1 5.92487 1 12C1 18.0751 5.92487 23 12 23Z"
          fill="black"/>
    <path d="M11.9566 15.5348C14.0457 15.5348 15.7393 13.8298 15.7393 11.7265C15.7393 9.62325 14.0457 7.91821 11.9566 7.91821C9.86742 7.91821 8.17383 9.62325 8.17383 11.7265C8.17383 13.8298 9.86742 15.5348 11.9566 15.5348Z"
          fill="#6822FB"/>
    <g filter="url(#filter0_f_5145_24925)">
        <path d="M18.8804 13.7336C18.5113 15.0933 17.7542 16.3162 16.7015 17.2527C15.6489 18.1893 14.3373 18.7261 12.9438 18.9346L17.3428 14.1979C17.5036 14.0228 17.7028 13.8874 17.9247 13.8024C18.1467 13.7173 18.3854 13.685 18.622 13.708L18.8804 13.7336ZM10.7987 4.80005L6.64917 9.32564C6.46439 9.527 6.2292 9.67537 5.9679 9.75543C5.7066 9.83549 5.42867 9.84433 5.16281 9.78105L5.11292 9.7695C5.50381 8.49385 6.24321 7.35272 7.24779 6.4747C8.25236 5.59668 9.48219 5.01668 10.7987 4.80005Z"
              stroke="#C5FBFF" stroke-width="0.560201" stroke-miterlimit="10"/>
        <path d="M10.7989 4.80008C9.12332 5.07602 7.6003 5.93823 6.50149 7.23292C5.40268 8.5276 4.79954 10.1705 4.79968 11.8686V11.8993L5.61067 11.0129C5.77139 10.8377 5.97058 10.7023 6.19256 10.6173C6.41453 10.5323 6.65322 10.5 6.8898 10.523L8.10754 10.6432C8.46237 10.6777 8.82036 10.6293 9.15332 10.5019C9.48627 10.3745 9.7851 10.1715 10.0263 9.90898L14.4099 5.12882C15.2213 5.42399 15.9723 5.86389 16.6266 6.42717L12.5142 10.9118C12.3294 11.1132 12.0942 11.2616 11.8329 11.3416C11.5716 11.4217 11.2937 11.4305 11.0278 11.3672L9.98787 11.1114C9.72202 11.0481 9.44408 11.0569 9.18278 11.137C8.92148 11.217 8.68629 11.3654 8.50151 11.5667L5.406 14.9143C5.82557 15.8173 6.48945 16.5925 7.22749 17.2423L11.4819 12.6067C11.6426 12.4316 11.8418 12.2962 12.0638 12.2111C12.2858 12.1261 12.5245 12.0938 12.7611 12.1168L13.9801 12.237C14.3349 12.2715 14.6929 12.2231 15.0259 12.0957C15.3588 11.9683 15.6577 11.7653 15.8988 11.5028L18.4187 8.75392C18.8613 9.67302 19.1025 10.6761 19.1261 11.6959L18.3893 12.5082C18.2045 12.7095 17.9693 12.8579 17.708 12.9379C17.4467 13.018 17.1688 13.0268 16.9029 12.9636L15.8617 12.7141C15.5959 12.6508 15.3179 12.6597 15.0566 12.7397C14.7953 12.8198 14.5601 12.9682 14.3753 13.1695L9.42634 18.5662C10.2386 18.8749 11.1004 19.0327 11.9693 19.0318C12.3091 19.0322 12.6486 19.0079 12.9849 18.9589V18.9589C14.3717 18.7603 15.6698 18.1595 16.7185 17.2307C17.7673 16.302 18.5208 15.0861 18.8856 13.7336"
              stroke="#C5FBFF" stroke-width="0.560201" stroke-miterlimit="10"/>
    </g>
    <path d="M18.8809 13.7336C18.5118 15.0933 17.7547 16.3162 16.702 17.2527C15.6494 18.1893 14.3378 18.7261 12.9443 18.9346L17.3433 14.1979C17.504 14.0228 17.7032 13.8874 17.9252 13.8024C18.1472 13.7173 18.3859 13.685 18.6225 13.708L18.8809 13.7336ZM10.7992 4.80005L6.64966 9.32564C6.46488 9.527 6.22969 9.67537 5.96839 9.75543C5.70709 9.83549 5.42916 9.84434 5.16329 9.78106L5.1134 9.7695C5.5043 8.49385 6.2437 7.35272 7.24827 6.4747C8.25285 5.59669 9.48268 5.01668 10.7992 4.80005Z"
          stroke="white" stroke-width="0.560201" stroke-miterlimit="10"/>
    <path d="M10.799 4.80008C9.12344 5.07602 7.60042 5.93824 6.50161 7.23292C5.4028 8.5276 4.79967 10.1705 4.7998 11.8687V11.8993L5.6108 11.0129C5.77151 10.8378 5.9707 10.7023 6.19268 10.6173C6.41465 10.5323 6.65334 10.5 6.88993 10.523L8.10766 10.6432C8.46249 10.6777 8.82048 10.6293 9.15344 10.5019C9.4864 10.3745 9.78522 10.1715 10.0264 9.90899L14.41 5.12882C15.2214 5.42399 15.9724 5.8639 16.6268 6.42717L12.5143 10.9118C12.3295 11.1132 12.0943 11.2616 11.833 11.3416C11.5717 11.4217 11.2938 11.4305 11.0279 11.3672L9.988 11.1114C9.72214 11.0481 9.4442 11.0569 9.1829 11.137C8.9216 11.217 8.68641 11.3654 8.50163 11.5668L5.40612 14.9143C5.8257 15.8173 6.48957 16.5925 7.22761 17.2423L11.482 12.6067C11.6428 12.4316 11.842 12.2962 12.0639 12.2112C12.2859 12.1261 12.5246 12.0938 12.7612 12.1168L13.9802 12.237C14.3351 12.2715 14.693 12.2231 15.026 12.0957C15.359 11.9683 15.6578 11.7653 15.8989 11.5028L18.4189 8.75392C18.8615 9.67303 19.1026 10.6761 19.1262 11.6959L18.3894 12.5082C18.2046 12.7095 17.9694 12.8579 17.7081 12.9379C17.4469 13.018 17.1689 13.0268 16.9031 12.9636L15.8618 12.7142C15.596 12.6509 15.318 12.6597 15.0567 12.7397C14.7954 12.8198 14.5603 12.9682 14.3755 13.1695L9.42646 18.5662C10.2387 18.8749 11.1005 19.0327 11.9694 19.0318C12.3093 19.0323 12.6487 19.0079 12.9851 18.9589C14.3718 18.7603 15.6699 18.1595 16.7187 17.2308C17.7674 16.302 18.5209 15.0861 18.8857 13.7336"
          stroke="white" stroke-width="0.583933" stroke-miterlimit="10"/>
    <defs>
        <filter id="filter0_f_5145_24925" x="2.28081" y="2.15337" width="19.3666" height="19.4153"
                filterUnits="userSpaceOnUse" color-interpolation-filters="sRGB">
            <feFlood flood-opacity="0" result="BackgroundImageFix"/>
            <feBlend mode="normal" in="SourceGraphic" in2="BackgroundImageFix" result="shape"/>
            <feGaussianBlur stdDeviation="1.11936" result="effect1_foregroundBlur_5145_24925"/>
        </filter>
    </defs>
</svg>
