<svg width="24" height="24" viewBox="0 0 24 24" fill="none" xmlns="http://www.w3.org/2000/svg">
<path fill-rule="evenodd" clip-rule="evenodd" d="M11.2681 3.21006C11.6477 2.99316 12.1131 2.99039 12.4953 3.20275L19.6071 7.15426C20.0039 7.37473 20.25 7.79298 20.25 8.24692V15.8879C20.25 16.3437 20.0019 16.7634 19.6026 16.9831L12.6536 20.8071C12.2753 21.0153 11.8163 21.0135 11.4396 20.8022L4.38861 16.8483C3.99421 16.6271 3.75 16.2102 3.75 15.758V8.23092C3.75 7.78232 3.99039 7.36812 4.3799 7.14557L11.2681 3.21006ZM13.2239 1.89155C12.383 1.42436 11.3592 1.43046 10.524 1.90765L3.63578 5.84316C2.77886 6.33275 2.25 7.244 2.25 8.23092V15.758C2.25 16.7528 2.78726 17.67 3.65494 18.1566L10.7059 22.1106C11.5346 22.5753 12.5444 22.5793 13.3768 22.1212L20.3258 18.2972C21.2043 17.8138 21.75 16.8906 21.75 15.8879V8.24692C21.75 7.24826 21.2086 6.3281 20.3357 5.84306L13.2239 1.89155ZM11.7406 5.1002C11.5468 4.99783 11.3136 5.00439 11.126 5.11748C10.9383 5.23058 10.8236 5.43369 10.8236 5.6528V11.9998V18.3468C10.8236 18.692 11.1034 18.9718 11.4486 18.9718C11.7937 18.9718 12.0736 18.692 12.0736 18.3468V12.6248H13.5894C13.9345 12.6248 14.2144 12.345 14.2144 11.9998C14.2144 11.6546 13.9345 11.3748 13.5894 11.3748H12.0736V6.68995L13.2974 7.33662C13.6026 7.49789 13.9807 7.38122 14.142 7.07603C14.3032 6.77083 14.1866 6.3927 13.8814 6.23143L11.7406 5.1002ZM9.51262 7.36783C9.51262 7.02265 9.2328 6.74283 8.88762 6.74283C8.54244 6.74283 8.26262 7.02265 8.26262 7.36783V13.2632L6.53208 9.04256C6.41881 8.76629 6.12593 8.60873 5.83297 8.66646C5.54001 8.72418 5.32881 8.98107 5.32881 9.27967V14.72C5.32881 15.0651 5.60863 15.345 5.95381 15.345C6.29898 15.345 6.57881 15.0651 6.57881 14.72V12.4515L8.30934 16.6721C8.42262 16.9484 8.71549 17.1059 9.00845 17.0482C9.30141 16.9905 9.51262 16.7336 9.51262 16.435V7.36783ZM15.6469 7.10887C15.3445 6.94235 14.9644 7.05248 14.7979 7.35484C14.6314 7.6572 14.7415 8.0373 15.0439 8.20381L16.0135 8.73776V16.186C16.0135 16.5311 16.2933 16.811 16.6385 16.811C16.9836 16.811 17.2635 16.5311 17.2635 16.186V9.42772L17.9858 9.82674C18.2879 9.99365 18.6682 9.88402 18.8351 9.58188C19.002 9.27973 18.8924 8.89949 18.5902 8.73259L16.9407 7.82136L16.94 7.82097L15.6469 7.10887Z" fill="#111111" fill-opacity="0.2"/>
</svg>
