<svg width="80" height="80" viewBox="0 0 80 80" fill="none" xmlns="http://www.w3.org/2000/svg">
<path d="M38 7C38 5.89543 38.8954 5 40 5C41.1045 5 42 5.89543 42 7V15C42 16.1046 41.1045 17 40 17C38.8954 17 38 16.1046 38 15V7Z" fill="#EEEEEE"/>
<path d="M19 13.7321C18.4477 12.7755 18.7754 11.5523 19.732 11C20.6886 10.4477 21.9118 10.7755 22.4641 11.7321L25.9641 17.7942C26.5164 18.7508 26.1886 19.974 25.232 20.5263C24.2754 21.0786 23.0523 20.7508 22.5 19.7942L19 13.7321Z" fill="#EEEEEE"/>
<path d="M60.9638 13.7321C61.5161 12.7755 61.1884 11.5523 60.2318 11C59.2752 10.4477 58.052 10.7755 57.4997 11.7321L53.9997 17.7942C53.4475 18.7508 53.7752 19.974 54.7318 20.5263C55.6884 21.0786 56.9116 20.7508 57.4638 19.7942L60.9638 13.7321Z" fill="#EEEEEE"/>
<path fill-rule="evenodd" clip-rule="evenodd" d="M20.2171 26C18.6859 26 17.2936 26.8649 16.6248 28.2423C13.884 33.8868 6.79287 48.5071 5 52.3667V68C5 70.2091 6.79086 72 9 72H71C73.2091 72 75 70.2091 75 68V52.3667C73.1325 48.3369 66.1015 33.8502 63.3754 28.2407C62.7064 26.864 61.3146 26 59.784 26H20.2171ZM22.7615 34L17.051 46H26.0255C26.7851 46 27.479 46.4302 27.8168 47.1105L31.1832 53.8895C31.521 54.5698 32.2149 55 32.9745 55H47.0255C47.7851 55 48.479 54.5698 48.8168 53.8895L52.1832 47.1105C52.521 46.4302 53.2149 46 53.9745 46H62.949L57.2385 34H22.7615ZM15 61.5C13.8954 61.5 13 62.3954 13 63.5C13 64.6046 13.8954 65.5 15 65.5H65C66.1046 65.5 67 64.6046 67 63.5C67 62.3954 66.1046 61.5 65 61.5H15Z" fill="#F4F4F4"/>
</svg>
