<svg width="20" height="20" viewBox="0 0 20 20" fill="none" xmlns="http://www.w3.org/2000/svg">
<path fill-rule="evenodd" clip-rule="evenodd" d="M13.5763 19.3415C12.4658 19.7669 11.2601 20 10 20C4.47715 20 0 15.5228 0 10C0 4.47715 4.47715 0 10 0C15.5228 0 20 4.47715 20 10C20 11.2601 19.7669 12.4658 19.3415 13.5763C18.7826 13.3135 18.1585 13.1667 17.5 13.1667C15.1068 13.1667 13.1667 15.1068 13.1667 17.5C13.1667 18.1585 13.3135 18.7826 13.5763 19.3415ZM18.441 15.3642C17.6533 16.6012 16.6012 17.6533 15.3642 18.441C15.2372 18.1532 15.1667 17.8348 15.1667 17.5C15.1667 16.2113 16.2113 15.1667 17.5 15.1667C17.8348 15.1667 18.1532 15.2372 18.441 15.3642Z" fill="black"/>
<path d="M17.5 15C16.1193 15 15 16.1193 15 17.5C15 18.8807 16.1193 20 17.5 20C18.8807 20 20 18.8807 20 17.5C20 16.1193 18.8807 15 17.5 15Z" fill="#DA68A7"/>
<path fill-rule="evenodd" clip-rule="evenodd" d="M12.5264 8.35484C13.6836 7.08396 13.5037 5.1892 12.1245 4.12279C10.8096 3.10614 8.87943 3.20935 7.69942 4.32235C6.24442 4.95156 5.51889 6.57336 6.07232 8.04622C6.65104 9.58646 8.40919 10.3806 9.99915 9.82004L8.95133 7.03122L8.1884 5.00081L10.029 6.42395L12.5264 8.35484ZM13.926 11.9533C14.4794 13.4262 13.7539 15.048 12.2989 15.6772C11.119 16.7903 9.1887 16.8935 7.87381 15.8768C6.49457 14.8104 6.31466 12.9157 7.47198 11.6448L9.96928 13.5756L11.8099 14.9989L11.0471 12.9684L9.99915 10.1796C11.5892 9.61903 13.3473 10.4132 13.926 11.9533Z" fill="white"/>
</svg>
