<svg width="20" height="20" viewBox="0 0 20 20" fill="none" xmlns="http://www.w3.org/2000/svg">
<circle cx="10" cy="10" r="10" fill="black"/>
<path d="M15.054 5.8623C14.8534 5.70044 14.6142 5.47935 14.1782 5.42408C13.7693 5.36881 13.3526 5.64911 13.071 5.83467C12.7894 6.02022 12.2569 6.56504 12.037 6.73086C11.8171 6.89667 11.2539 7.05064 10.3472 7.6073C9.44059 8.16396 5.88349 10.5012 5.88349 10.5012L6.80941 10.513L2.68133 12.6883H3.09414L2.5 13.1502C2.5 13.1502 3.02469 13.2924 3.46451 13.0081V13.1384C3.46451 13.1384 8.37963 11.1565 9.3287 11.6698L8.75 11.8435C8.80015 11.8435 9.7338 11.9066 9.7338 11.9066C9.7338 11.9066 9.76466 12.5028 10.3279 12.8857C10.8912 13.2647 10.9028 13.474 10.9028 13.474C10.9028 13.474 10.6096 13.5964 10.6096 13.7503C10.6096 13.7503 11.0417 13.6161 11.4429 13.6279C11.8441 13.6398 12.1952 13.7503 12.1952 13.7503C12.1952 13.7503 12.1644 13.5845 11.7747 13.474C11.3812 13.3595 10.9992 12.9291 10.8102 12.6923C10.6211 12.4554 10.49 12.033 10.652 11.6105C10.787 11.2513 11.2577 11.0539 12.2299 10.5406C13.3758 9.93265 13.6381 9.48258 13.8002 9.13121C13.9622 8.77985 14.2014 8.08106 14.3364 7.75338C14.5062 7.33095 14.7145 7.10591 14.8881 6.97168C15.0579 6.83745 15.8333 6.54135 15.8333 6.54135C15.8333 6.54135 15.2431 6.01628 15.054 5.8623Z" fill="white"/>
</svg>
