<svg width="20" height="20" viewBox="0 0 20 20" fill="none" xmlns="http://www.w3.org/2000/svg">
<g clip-path="url(#clip0)">
<path d="M10 20C15.5228 20 20 15.5228 20 10C20 4.47715 15.5228 0 10 0C4.47715 0 0 4.47715 0 10C0 15.5228 4.47715 20 10 20Z" fill="black"/>
<path fill-rule="evenodd" clip-rule="evenodd" d="M12.5273 8.35484C13.6846 7.08396 13.5047 5.1892 12.1255 4.12279C10.8106 3.10614 8.88041 3.20935 7.70039 4.32235C6.2454 4.95156 5.51987 6.57336 6.0733 8.04622C6.65201 9.58646 8.41017 10.3806 10.0001 9.82004L8.9523 7.03122L8.18938 5.00081L10.0299 6.42395L12.5273 8.35484ZM13.9269 11.9533C14.4804 13.4262 13.7549 15.048 12.2999 15.6772C11.1199 16.7903 9.18968 16.8935 7.87479 15.8768C6.49555 14.8104 6.31564 12.9157 7.47296 11.6448L9.97026 13.5756L11.8109 14.9989L11.048 12.9684L10.0001 10.1796C11.5902 9.61903 13.3483 10.4132 13.9269 11.9533Z" fill="white"/>
</g>
<defs>
<clipPath id="clip0">
<rect width="20" height="20" fill="white"/>
</clipPath>
</defs>
</svg>
