<svg width="20" height="20" viewBox="0 0 20 20" fill="none" xmlns="http://www.w3.org/2000/svg">
<circle cx="10" cy="10" r="10" fill="#E6007A"/>
<path d="M10.0006 5.88941C11.4126 5.88941 12.5573 5.22401 12.5573 4.4032C12.5573 3.58239 11.4126 2.91699 10.0006 2.91699C8.58862 2.91699 7.44398 3.58239 7.44398 4.4032C7.44398 5.22401 8.58862 5.88941 10.0006 5.88941Z" fill="white"/>
<path d="M10.0006 17.0837C11.4126 17.0837 12.5573 16.4183 12.5573 15.5975C12.5573 14.7766 11.4126 14.1112 10.0006 14.1112C8.58862 14.1112 7.44398 14.7766 7.44398 15.5975C7.44398 16.4183 8.58862 17.0837 10.0006 17.0837Z" fill="white"/>
<path d="M6.43719 7.94493C7.14319 6.72326 7.13872 5.4002 6.42721 4.98979C5.71569 4.57938 4.56657 5.23704 3.86057 6.45872C3.15458 7.68039 3.15905 9.00345 3.87056 9.41385C4.58208 9.82426 5.7312 9.1666 6.43719 7.94493Z" fill="white"/>
<path d="M16.1407 13.542C16.8467 12.3204 16.8423 10.9973 16.1307 10.5869C15.4192 10.1765 14.2701 10.8342 13.5641 12.0558C12.8581 13.2775 12.8626 14.6006 13.5741 15.011C14.2856 15.4214 15.4347 14.7637 16.1407 13.542Z" fill="white"/>
<path d="M6.4272 15.0109C7.13871 14.6005 7.14319 13.2774 6.43719 12.0558C5.73119 10.8341 4.58207 10.1764 3.87056 10.5868C3.15905 10.9972 3.15457 12.3203 3.86057 13.542C4.56657 14.7636 5.71569 15.4213 6.4272 15.0109Z" fill="white"/>
<path d="M16.1307 9.4139C16.8422 9.00349 16.8467 7.68043 16.1407 6.45876C15.4347 5.23709 14.2856 4.57943 13.574 4.98983C12.8625 5.40024 12.8581 6.7233 13.5641 7.94497C14.27 9.16664 15.4192 9.8243 16.1307 9.4139Z" fill="white"/>
</svg>
