<svg width="80" height="80" viewBox="0 0 80 80" fill="none" xmlns="http://www.w3.org/2000/svg">
<path fill-rule="evenodd" clip-rule="evenodd" d="M73 8C74.1046 8 75 8.89543 75 10V16.158H33.6939C33.3296 16.158 32.9726 16.2618 32.6631 16.4576L22.8287 22.681H5V10C5 8.89543 5.89543 8 7 8H73ZM12 15.2C12 16.3045 11.1046 17.2 10 17.2C8.89543 17.2 8 16.3045 8 15.2C8 14.0954 8.89543 13.2 10 13.2C11.1046 13.2 12 14.0954 12 15.2ZM18 15.2C18 16.3045 17.1046 17.2 16 17.2C14.8954 17.2 14 16.3045 14 15.2C14 14.0954 14.8954 13.2 16 13.2C17.1046 13.2 18 14.0954 18 15.2ZM22 17.2C23.1046 17.2 24 16.3045 24 15.2C24 14.0954 23.1046 13.2 22 13.2C20.8954 13.2 20 14.0954 20 15.2C20 16.3045 20.8954 17.2 22 17.2Z" fill="#F4F4F4"/>
<path d="M40.0001 38.4012C38.7963 38.4012 37.8183 39.3873 37.8183 40.601V49.4003C37.8183 50.614 38.7963 51.6001 40.0001 51.6001C41.2039 51.6001 42.1819 50.614 42.1819 49.4003V40.601C42.1819 39.3873 41.2039 38.4012 40.0001 38.4012Z" fill="#F4F4F4"/>
<path fill-rule="evenodd" clip-rule="evenodd" d="M34.2512 19.1416H75V63.9995C75 65.1041 74.1046 65.9995 73 65.9995H7C5.89543 65.9995 5 65.1041 5 63.9995V25.6646H23.386C23.7503 25.6646 24.1073 25.5608 24.4168 25.365L34.2512 19.1416ZM29.091 53.7999C29.091 55.0159 28.1152 55.9998 26.9092 55.9998C25.7033 55.9998 24.7274 55.0159 24.7274 53.7999V51.6001H18.182C17.481 51.6001 16.8226 51.2608 16.4114 50.687C16.0022 50.1135 15.8893 49.3745 16.113 48.7041L20.4767 35.5052C20.858 34.3516 22.079 33.7265 23.2359 34.1152C24.378 34.4976 24.9959 35.7437 24.6145 36.8973L21.2096 47.2005H24.7274V45.0007C24.7274 43.7848 25.7033 42.8008 26.9092 42.8008C28.1152 42.8008 29.091 43.7848 29.091 45.0007V53.7999ZM46.5455 49.4003C46.5455 53.0394 43.6094 55.9998 40.0001 55.9998C36.3908 55.9998 33.4547 53.0394 33.4547 49.4003V40.601C33.4547 36.9619 36.3908 34.0016 40.0001 34.0016C43.6094 34.0016 46.5455 36.9619 46.5455 40.601V49.4003ZM64 53.7999C64 55.0159 63.0242 55.9998 61.8182 55.9998C60.6122 55.9998 59.6364 55.0159 59.6364 53.7999V51.6001H53.0909C52.39 51.6001 51.7315 51.2608 51.3203 50.687C50.9112 50.1135 50.7983 49.3745 51.022 48.7041L55.3856 35.5052C55.7648 34.3516 56.99 33.7265 58.1449 34.1152C59.287 34.4976 59.9049 35.7437 59.5235 36.8973L56.1186 47.2005H59.6364V45.0007C59.6364 43.7848 60.6122 42.8008 61.8182 42.8008C63.0242 42.8008 64 43.7848 64 45.0007V53.7999Z" fill="#F4F4F4"/>
<path d="M1 72C1 70.8954 1.89543 70 3 70H77C78.1046 70 79 70.8954 79 72C79 73.1046 78.1046 74 77 74H3C1.89543 74 1 73.1046 1 72Z" fill="#EEEEEE"/>
</svg>
