<svg width="80" height="80" viewBox="0 0 80 80" fill="none" xmlns="http://www.w3.org/2000/svg">
<path fill-rule="evenodd" clip-rule="evenodd" d="M73 8C74.1046 8 75 8.89543 75 10V16.158H33.6939C33.3296 16.158 32.9726 16.2618 32.6631 16.4576L22.8287 22.681H5V10C5 8.89543 5.89543 8 7 8H73ZM12 15.2C12 16.3045 11.1046 17.2 10 17.2C8.89543 17.2 8 16.3045 8 15.2C8 14.0954 8.89543 13.2 10 13.2C11.1046 13.2 12 14.0954 12 15.2ZM18 15.2C18 16.3045 17.1046 17.2 16 17.2C14.8954 17.2 14 16.3045 14 15.2C14 14.0954 14.8954 13.2 16 13.2C17.1046 13.2 18 14.0954 18 15.2ZM22 17.2C23.1046 17.2 24 16.3045 24 15.2C24 14.0954 23.1046 13.2 22 13.2C20.8954 13.2 20 14.0954 20 15.2C20 16.3045 20.8954 17.2 22 17.2Z" fill="#F8F8F8"/>
<path d="M1 72C1 70.8954 1.89543 70 3 70H77C78.1046 70 79 70.8954 79 72C79 73.1046 78.1046 74 77 74H3C1.89543 74 1 73.1046 1 72Z" fill="#EEEEEE"/>
<path fill-rule="evenodd" clip-rule="evenodd" d="M75 19.1416H34.2512L24.4168 25.365C24.1073 25.5608 23.7503 25.6646 23.386 25.6646H5V63.9995C5 65.1041 5.89543 65.9995 7 65.9995H73C74.1046 65.9995 75 65.1041 75 63.9995V19.1416ZM20.166 37.1436H27.124C27.8467 37.1436 28.3936 36.9873 28.7646 36.6748C29.1357 36.3623 29.3213 35.9521 29.3213 35.4443C29.3213 34.2822 28.5596 33.7012 27.0361 33.7012H19.3018C18.4619 33.7012 17.8564 33.8916 17.4854 34.2725C17.1143 34.6533 16.8604 35.2637 16.7236 36.1035L15.4932 43.1201C15.3857 43.7354 15.332 44.0674 15.332 44.1162C15.332 44.5557 15.5176 44.9512 15.8887 45.3027C16.2598 45.6445 16.6846 45.8154 17.1631 45.8154C17.6025 45.8154 18.1592 45.5615 18.833 45.0537C19.5166 44.5361 20.0391 44.1748 20.4004 43.9697C20.7617 43.7646 21.3623 43.6621 22.2021 43.6621C22.8857 43.6621 23.5059 43.8281 24.0625 44.1602C24.6191 44.4824 25.0635 44.9756 25.3955 45.6396C25.7275 46.3037 25.8936 47.1045 25.8936 48.042C25.8936 48.9111 25.7373 49.6875 25.4248 50.3711C25.1221 51.0547 24.6875 51.5918 24.1211 51.9824C23.5547 52.373 22.8955 52.5684 22.1436 52.5684C21.3232 52.5684 20.5811 52.3291 19.917 51.8506C19.2529 51.3623 18.7256 50.6836 18.335 49.8145C17.9346 48.8672 17.3242 48.3936 16.5039 48.3936C16.0254 48.3936 15.625 48.5645 15.3027 48.9062C14.9902 49.248 14.834 49.6094 14.834 49.9902C14.834 50.6152 15.0586 51.3477 15.5078 52.1875C15.9668 53.0176 16.7383 53.7549 17.8223 54.3994C18.916 55.0439 20.3369 55.3662 22.085 55.3662C23.6475 55.3662 25.0244 55.0244 26.2158 54.3408C27.417 53.6572 28.335 52.7344 28.9697 51.5723C29.6045 50.4102 29.9219 49.1211 29.9219 47.7051C29.9219 46.7285 29.7461 45.8154 29.3945 44.9658C29.043 44.1162 28.5596 43.3838 27.9443 42.7686C27.3291 42.1436 26.6113 41.6553 25.791 41.3037C24.9805 40.9521 24.1064 40.7764 23.1689 40.7764C21.9971 40.7764 20.7178 41.1475 19.3311 41.8896L20.166 37.1436ZM47.1924 48.5986C47.3877 47.4463 47.4854 46.0693 47.4854 44.4678C47.4854 41.5186 47.1143 39.2383 46.3721 37.627C45.9424 36.6992 45.415 35.9229 44.79 35.2979C44.1748 34.6631 43.457 34.1846 42.6367 33.8623C41.8164 33.5303 40.9033 33.3643 39.8975 33.3643C38.374 33.3643 37.0605 33.7354 35.957 34.4775C34.8633 35.21 34.0283 36.2793 33.4521 37.6855C33.1201 38.5352 32.876 39.5508 32.7197 40.7324C32.5635 41.9141 32.4854 43.2422 32.4854 44.7168C32.4854 45.8594 32.5537 46.9238 32.6904 47.9102C32.8369 48.8867 33.0615 49.7803 33.3643 50.5908C33.96 52.0752 34.8438 53.2373 36.0156 54.0771C37.1973 54.917 38.5303 55.3369 40.0146 55.3369C41.3037 55.3369 42.4756 55.0244 43.5303 54.3994C44.585 53.7744 45.4443 52.8857 46.1084 51.7334C46.6357 50.7959 46.9971 49.751 47.1924 48.5986ZM43.1494 39.7949C43.3643 40.9277 43.4717 42.3877 43.4717 44.1748C43.4717 46.0596 43.3691 47.583 43.1641 48.7451C42.959 49.9072 42.6025 50.8008 42.0947 51.4258C41.5869 52.0508 40.8838 52.3633 39.9854 52.3633C39.1162 52.3633 38.4277 52.0654 37.9199 51.4697C37.4121 50.8643 37.0508 49.9756 36.8359 48.8037C36.6211 47.6318 36.5137 46.1279 36.5137 44.292C36.5137 41.5869 36.7627 39.585 37.2607 38.2861C37.7686 36.9873 38.667 36.3379 39.9561 36.3379C40.8545 36.3379 41.5576 36.6309 42.0654 37.2168C42.5732 37.793 42.9346 38.6523 43.1494 39.7949ZM59.4531 41.2451C58.8086 41.7725 58.0371 42.0361 57.1387 42.0361H56.5381C55.8447 42.0361 55.3223 42.1826 54.9707 42.4756C54.6191 42.7588 54.4434 43.1348 54.4434 43.6035C54.4434 44.082 54.5898 44.458 54.8828 44.7314C55.1758 44.9951 55.5908 45.127 56.1279 45.127C56.2451 45.127 56.5088 45.1074 56.9189 45.0684C57.3291 45.0293 57.6318 45.0098 57.8271 45.0098C58.9404 45.0098 59.8096 45.3369 60.4346 45.9912C61.0596 46.6357 61.3721 47.5293 61.3721 48.6719C61.3721 49.4434 61.1865 50.1221 60.8154 50.708C60.4541 51.2939 59.9902 51.7383 59.4238 52.041C58.8672 52.334 58.2861 52.4805 57.6807 52.4805C56.626 52.4805 55.8057 52.1533 55.2197 51.499C54.6436 50.835 54.1016 49.8242 53.5938 48.4668C53.5156 48.2422 53.3496 48.0518 53.0957 47.8955C52.8418 47.7295 52.5781 47.6465 52.3047 47.6465C51.7578 47.6465 51.2988 47.8223 50.9277 48.1738C50.5664 48.5156 50.3857 48.9697 50.3857 49.5361C50.3857 49.9756 50.5371 50.5322 50.8398 51.2061C51.1523 51.8799 51.6064 52.5342 52.2021 53.1689C52.8076 53.7939 53.5742 54.3164 54.502 54.7363C55.4297 55.1562 56.4795 55.3662 57.6514 55.3662C58.8037 55.3662 59.8535 55.1855 60.8008 54.8242C61.7578 54.4531 62.583 53.9453 63.2764 53.3008C63.9697 52.6465 64.4922 51.9043 64.8438 51.0742C65.2051 50.2441 65.3857 49.3848 65.3857 48.4961C65.3857 47.7539 65.2539 47.0654 64.9902 46.4307C64.7266 45.7861 64.3311 45.2002 63.8037 44.6729C63.2861 44.1455 62.6465 43.6768 61.8848 43.2666C62.6758 42.6025 63.2812 41.9238 63.7012 41.2305C64.1309 40.5273 64.3457 39.6875 64.3457 38.7109C64.3457 37.9688 64.1992 37.2754 63.9062 36.6309C63.6133 35.9863 63.1787 35.4199 62.6025 34.9316C62.0264 34.4434 61.3477 34.0723 60.5664 33.8184C59.7852 33.5547 58.9209 33.4229 57.9736 33.4229C56.8896 33.4229 55.9082 33.5791 55.0293 33.8916C54.1504 34.1943 53.4131 34.5996 52.8174 35.1074C52.2314 35.6152 51.7822 36.1523 51.4697 36.7188C51.167 37.2754 51.0156 37.8076 51.0156 38.3154C51.0156 38.8428 51.1768 39.2676 51.499 39.5898C51.8311 39.9023 52.1924 40.0586 52.583 40.0586C52.915 40.0586 53.208 40 53.4619 39.8828C53.7158 39.7656 53.8916 39.6045 53.9893 39.3994C54.1553 39.0186 54.3359 38.6133 54.5312 38.1836C54.7363 37.7539 54.9512 37.4023 55.1758 37.1289C55.4004 36.8555 55.7031 36.6357 56.084 36.4697C56.4746 36.3037 56.9678 36.2207 57.5635 36.2207C58.4424 36.2207 59.1406 36.4941 59.6582 37.041C60.1758 37.5781 60.4346 38.2227 60.4346 38.9746C60.4346 39.9609 60.1074 40.7178 59.4531 41.2451Z" fill="#F8F8F8"/>
</svg>
