<svg width="80" height="80" viewBox="0 0 80 80" fill="none" xmlns="http://www.w3.org/2000/svg">
<path fill-rule="evenodd" clip-rule="evenodd" d="M73 8C74.1046 8 75 8.89543 75 10V16.158H33.6939C33.3296 16.158 32.9726 16.2618 32.6631 16.4576L22.8287 22.681H5V10C5 8.89543 5.89543 8 7 8H73ZM12 15.2C12 16.3045 11.1046 17.2 10 17.2C8.89543 17.2 8 16.3045 8 15.2C8 14.0954 8.89543 13.2 10 13.2C11.1046 13.2 12 14.0954 12 15.2ZM18 15.2C18 16.3045 17.1046 17.2 16 17.2C14.8954 17.2 14 16.3045 14 15.2C14 14.0954 14.8954 13.2 16 13.2C17.1046 13.2 18 14.0954 18 15.2ZM22 17.2C23.1046 17.2 24 16.3045 24 15.2C24 14.0954 23.1046 13.2 22 13.2C20.8954 13.2 20 14.0954 20 15.2C20 16.3045 20.8954 17.2 22 17.2Z" fill="#F8F8F8"/>
<path fill-rule="evenodd" clip-rule="evenodd" d="M75 19.1416H34.2512L24.4168 25.365C24.1073 25.5608 23.7503 25.6646 23.386 25.6646H5V63.9995C5 65.1041 5.89543 65.9995 7 65.9995H73C74.1046 65.9995 75 65.1041 75 63.9995V19.1416ZM20.166 37.1436H27.124C27.8467 37.1436 28.3936 36.9873 28.7646 36.6748C29.1357 36.3623 29.3213 35.9521 29.3213 35.4443C29.3213 34.2822 28.5596 33.7012 27.0361 33.7012H19.3018C18.4619 33.7012 17.8564 33.8916 17.4854 34.2725C17.1143 34.6533 16.8604 35.2637 16.7236 36.1035L15.4932 43.1201C15.3857 43.7354 15.332 44.0674 15.332 44.1162C15.332 44.5557 15.5176 44.9512 15.8887 45.3027C16.2598 45.6445 16.6846 45.8154 17.1631 45.8154C17.6025 45.8154 18.1592 45.5615 18.833 45.0537C19.5166 44.5361 20.0391 44.1748 20.4004 43.9697C20.7617 43.7646 21.3623 43.6621 22.2021 43.6621C22.8857 43.6621 23.5059 43.8281 24.0625 44.1602C24.6191 44.4824 25.0635 44.9756 25.3955 45.6396C25.7275 46.3037 25.8936 47.1045 25.8936 48.042C25.8936 48.9111 25.7373 49.6875 25.4248 50.3711C25.1221 51.0547 24.6875 51.5918 24.1211 51.9824C23.5547 52.373 22.8955 52.5684 22.1436 52.5684C21.3232 52.5684 20.5811 52.3291 19.917 51.8506C19.2529 51.3623 18.7256 50.6836 18.335 49.8145C17.9346 48.8672 17.3242 48.3936 16.5039 48.3936C16.0254 48.3936 15.625 48.5645 15.3027 48.9062C14.9902 49.248 14.834 49.6094 14.834 49.9902C14.834 50.6152 15.0586 51.3477 15.5078 52.1875C15.9668 53.0176 16.7383 53.7549 17.8223 54.3994C18.916 55.0439 20.3369 55.3662 22.085 55.3662C23.6475 55.3662 25.0244 55.0244 26.2158 54.3408C27.417 53.6572 28.335 52.7344 28.9697 51.5723C29.6045 50.4102 29.9219 49.1211 29.9219 47.7051C29.9219 46.7285 29.7461 45.8154 29.3945 44.9658C29.043 44.1162 28.5596 43.3838 27.9443 42.7686C27.3291 42.1436 26.6113 41.6553 25.791 41.3037C24.9805 40.9521 24.1064 40.7764 23.1689 40.7764C21.9971 40.7764 20.7178 41.1475 19.3311 41.8896L20.166 37.1436ZM47.1924 48.5986C47.3877 47.4463 47.4854 46.0693 47.4854 44.4678C47.4854 41.5186 47.1143 39.2383 46.3721 37.627C45.9424 36.6992 45.415 35.9229 44.79 35.2979C44.1748 34.6631 43.457 34.1846 42.6367 33.8623C41.8164 33.5303 40.9033 33.3643 39.8975 33.3643C38.374 33.3643 37.0605 33.7354 35.957 34.4775C34.8633 35.21 34.0283 36.2793 33.4521 37.6855C33.1201 38.5352 32.876 39.5508 32.7197 40.7324C32.5635 41.9141 32.4854 43.2422 32.4854 44.7168C32.4854 45.8594 32.5537 46.9238 32.6904 47.9102C32.8369 48.8867 33.0615 49.7803 33.3643 50.5908C33.96 52.0752 34.8438 53.2373 36.0156 54.0771C37.1973 54.917 38.5303 55.3369 40.0146 55.3369C41.3037 55.3369 42.4756 55.0244 43.5303 54.3994C44.585 53.7744 45.4443 52.8857 46.1084 51.7334C46.6357 50.7959 46.9971 49.751 47.1924 48.5986ZM43.1494 39.7949C43.3643 40.9277 43.4717 42.3877 43.4717 44.1748C43.4717 46.0596 43.3691 47.583 43.1641 48.7451C42.959 49.9072 42.6025 50.8008 42.0947 51.4258C41.5869 52.0508 40.8838 52.3633 39.9854 52.3633C39.1162 52.3633 38.4277 52.0654 37.9199 51.4697C37.4121 50.8643 37.0508 49.9756 36.8359 48.8037C36.6211 47.6318 36.5137 46.1279 36.5137 44.292C36.5137 41.5869 36.7627 39.585 37.2607 38.2861C37.7686 36.9873 38.667 36.3379 39.9561 36.3379C40.8545 36.3379 41.5576 36.6309 42.0654 37.2168C42.5732 37.793 42.9346 38.6523 43.1494 39.7949ZM55.8496 37.1436H62.8076C63.5303 37.1436 64.0771 36.9873 64.4482 36.6748C64.8193 36.3623 65.0049 35.9521 65.0049 35.4443C65.0049 34.2822 64.2432 33.7012 62.7197 33.7012H54.9854C54.1455 33.7012 53.54 33.8916 53.1689 34.2725C52.7979 34.6533 52.5439 35.2637 52.4072 36.1035L51.1768 43.1201C51.0693 43.7354 51.0156 44.0674 51.0156 44.1162C51.0156 44.5557 51.2012 44.9512 51.5723 45.3027C51.9434 45.6445 52.3682 45.8154 52.8467 45.8154C53.2861 45.8154 53.8428 45.5615 54.5166 45.0537C55.2002 44.5361 55.7227 44.1748 56.084 43.9697C56.4453 43.7646 57.0459 43.6621 57.8857 43.6621C58.5693 43.6621 59.1895 43.8281 59.7461 44.1602C60.3027 44.4824 60.7471 44.9756 61.0791 45.6396C61.4111 46.3037 61.5771 47.1045 61.5771 48.042C61.5771 48.9111 61.4209 49.6875 61.1084 50.3711C60.8057 51.0547 60.3711 51.5918 59.8047 51.9824C59.2383 52.373 58.5791 52.5684 57.8271 52.5684C57.0068 52.5684 56.2646 52.3291 55.6006 51.8506C54.9365 51.3623 54.4092 50.6836 54.0186 49.8145C53.6182 48.8672 53.0078 48.3936 52.1875 48.3936C51.709 48.3936 51.3086 48.5645 50.9863 48.9062C50.6738 49.248 50.5176 49.6094 50.5176 49.9902C50.5176 50.6152 50.7422 51.3477 51.1914 52.1875C51.6504 53.0176 52.4219 53.7549 53.5059 54.3994C54.5996 55.0439 56.0205 55.3662 57.7686 55.3662C59.3311 55.3662 60.708 55.0244 61.8994 54.3408C63.1006 53.6572 64.0186 52.7344 64.6533 51.5723C65.2881 50.4102 65.6055 49.1211 65.6055 47.7051C65.6055 46.7285 65.4297 45.8154 65.0781 44.9658C64.7266 44.1162 64.2432 43.3838 63.6279 42.7686C63.0127 42.1436 62.2949 41.6553 61.4746 41.3037C60.6641 40.9521 59.79 40.7764 58.8525 40.7764C57.6807 40.7764 56.4014 41.1475 55.0146 41.8896L55.8496 37.1436Z" fill="#F8F8F8"/>
<path d="M1 72C1 70.8954 1.89543 70 3 70H77C78.1046 70 79 70.8954 79 72C79 73.1046 78.1046 74 77 74H3C1.89543 74 1 73.1046 1 72Z" fill="#EEEEEE"/>
</svg>
