<svg width="120" height="120" viewBox="0 0 120 120" fill="none" xmlns="http://www.w3.org/2000/svg">
<path d="M48.75 49.2188C51.08 49.2188 52.9688 51.1075 52.9688 53.4375C52.9688 55.7675 51.08 57.6562 48.75 57.6562C46.42 57.6562 44.5312 55.7675 44.5312 53.4375C44.5312 51.1075 46.42 49.2188 48.75 49.2188Z" fill="#111111"/>
<path d="M71.25 49.2188C73.58 49.2188 75.4688 51.1075 75.4688 53.4375C75.4688 55.7675 73.58 57.6562 71.25 57.6562C68.92 57.6562 67.0312 55.7675 67.0312 53.4375C67.0312 51.1075 68.92 49.2188 71.25 49.2188Z" fill="#111111"/>
<path d="M48.75 36.0938C51.08 36.0938 52.9688 37.9825 52.9688 40.3125C52.9688 42.6425 51.08 44.5312 48.75 44.5312C46.42 44.5312 44.5312 42.6425 44.5312 40.3125C44.5312 37.9825 46.42 36.0938 48.75 36.0938Z" fill="#111111"/>
<path d="M71.25 35.1562C73.58 35.1562 75.4688 37.045 75.4688 39.375C75.4688 41.705 73.58 43.5938 71.25 43.5938C68.92 43.5938 67.0312 41.705 67.0312 39.375C67.0312 37.045 68.92 35.1562 71.25 35.1562Z" fill="#111111"/>
<path d="M37.5 55.7812C39.83 55.7812 41.7188 57.67 41.7188 60C41.7188 62.33 39.83 64.2188 37.5 64.2188C35.17 64.2188 33.2813 62.33 33.2812 60C33.2812 57.67 35.17 55.7812 37.5 55.7812Z" fill="#111111"/>
<path d="M82.5 55.7812C84.83 55.7812 86.7188 57.67 86.7188 60C86.7188 62.33 84.83 64.2188 82.5 64.2188C80.17 64.2188 78.2812 62.33 78.2812 60C78.2812 57.67 80.17 55.7812 82.5 55.7812Z" fill="#111111"/>
<path d="M37.5 42.6562C39.83 42.6562 41.7188 44.545 41.7188 46.875C41.7188 49.205 39.83 51.0938 37.5 51.0938C35.17 51.0938 33.2813 49.205 33.2812 46.875C33.2812 44.545 35.17 42.6562 37.5 42.6562Z" fill="#111111"/>
<path d="M60 42.6562C62.33 42.6562 64.2188 44.545 64.2188 46.875C64.2188 49.205 62.33 51.0938 60 51.0938C57.67 51.0938 55.7812 49.205 55.7812 46.875C55.7812 44.545 57.67 42.6562 60 42.6562Z" fill="#111111"/>
<path d="M82.5 42.6562C84.83 42.6562 86.7188 44.545 86.7188 46.875C86.7188 49.205 84.83 51.0938 82.5 51.0938C80.17 51.0938 78.2812 49.205 78.2812 46.875C78.2812 44.545 80.17 42.6562 82.5 42.6562Z" fill="#111111"/>
<path d="M60 29.5312C62.33 29.5312 64.2188 31.42 64.2188 33.75C64.2188 36.08 62.33 37.9688 60 37.9688C57.67 37.9688 55.7812 36.08 55.7812 33.75C55.7812 31.42 57.67 29.5313 60 29.5312Z" fill="#111111"/>
<path d="M26.25 77.3438C27.5444 77.3438 28.5938 78.3931 28.5938 79.6875C28.5938 80.9819 27.5444 82.0312 26.25 82.0312C24.9556 82.0312 23.9063 80.9819 23.9062 79.6875C23.9062 78.3931 24.9556 77.3438 26.25 77.3438Z" fill="#111111"/>
<path d="M93.75 77.3438C95.0444 77.3438 96.0938 78.3931 96.0938 79.6875C96.0938 80.9819 95.0444 82.0312 93.75 82.0312C92.4556 82.0312 91.4062 80.9819 91.4062 79.6875C91.4062 78.3931 92.4556 77.3438 93.75 77.3438Z" fill="#111111"/>
<path d="M48.75 64.2188C50.0444 64.2188 51.0938 65.2681 51.0938 66.5625C51.0938 67.8569 50.0444 68.9062 48.75 68.9062C47.4556 68.9062 46.4062 67.8569 46.4062 66.5625C46.4062 65.2681 47.4556 64.2188 48.75 64.2188Z" fill="#111111"/>
<path d="M71.25 64.2188C72.5444 64.2188 73.5938 65.2681 73.5938 66.5625C73.5938 67.8569 72.5444 68.9062 71.25 68.9062C69.9556 68.9062 68.9062 67.8569 68.9062 66.5625C68.9062 65.2681 69.9556 64.2188 71.25 64.2188Z" fill="#111111"/>
<path d="M26.25 37.9688C27.5444 37.9688 28.5938 39.0181 28.5938 40.3125C28.5938 41.6069 27.5444 42.6562 26.25 42.6562C24.9556 42.6562 23.9063 41.6069 23.9062 40.3125C23.9062 39.0181 24.9556 37.9688 26.25 37.9688Z" fill="#111111"/>
<path d="M93.75 37.9688C95.0444 37.9688 96.0938 39.0181 96.0938 40.3125C96.0938 41.6069 95.0444 42.6562 93.75 42.6562C92.4556 42.6562 91.4062 41.6069 91.4062 40.3125C91.4062 39.0181 92.4556 37.9688 93.75 37.9688Z" fill="#111111"/>
<path d="M48.75 24.8438C50.0444 24.8438 51.0938 25.8931 51.0938 27.1875C51.0938 28.4819 50.0444 29.5312 48.75 29.5312C47.4556 29.5312 46.4062 28.4819 46.4062 27.1875C46.4062 25.8931 47.4556 24.8438 48.75 24.8438Z" fill="#111111"/>
<path d="M71.25 24.8438C72.5444 24.8438 73.5938 25.8931 73.5938 27.1875C73.5938 28.4819 72.5444 29.5312 71.25 29.5312C69.9556 29.5312 68.9062 28.4819 68.9062 27.1875C68.9062 25.8931 69.9556 24.8438 71.25 24.8438Z" fill="#111111"/>
<path d="M37.5 70.7812C38.7944 70.7812 39.8438 71.8306 39.8438 73.125C39.8438 74.4194 38.7944 75.4688 37.5 75.4688C36.2056 75.4688 35.1562 74.4194 35.1562 73.125C35.1562 71.8306 36.2056 70.7812 37.5 70.7812Z" fill="#111111"/>
<path d="M82.5 70.7812C83.7944 70.7812 84.8438 71.8306 84.8438 73.125C84.8438 74.4194 83.7944 75.4688 82.5 75.4688C81.2056 75.4688 80.1562 74.4194 80.1562 73.125C80.1562 71.8306 81.2056 70.7812 82.5 70.7812Z" fill="#111111"/>
<path d="M60 57.6562C61.2944 57.6562 62.3438 58.7056 62.3438 60C62.3438 61.2944 61.2944 62.3438 60 62.3438C58.7056 62.3438 57.6562 61.2944 57.6562 60C57.6562 58.7056 58.7056 57.6562 60 57.6562Z" fill="#111111"/>
<path d="M37.5 31.4062C38.7944 31.4062 39.8438 32.4556 39.8438 33.75C39.8438 35.0444 38.7944 36.0938 37.5 36.0938C36.2056 36.0938 35.1562 35.0444 35.1562 33.75C35.1562 32.4556 36.2056 31.4062 37.5 31.4062Z" fill="#111111"/>
<path d="M82.5 31.4062C83.7944 31.4062 84.8438 32.4556 84.8438 33.75C84.8438 35.0444 83.7944 36.0938 82.5 36.0938C81.2056 36.0938 80.1562 35.0444 80.1562 33.75C80.1562 32.4556 81.2056 31.4062 82.5 31.4062Z" fill="#111111"/>
<path d="M60 18.2812C61.2944 18.2812 62.3438 19.3306 62.3438 20.625C62.3438 21.9194 61.2944 22.9688 60 22.9688C58.7056 22.9688 57.6562 21.9194 57.6562 20.625C57.6562 19.3306 58.7056 18.2813 60 18.2812Z" fill="#111111"/>
<path d="M26.25 51.0938C27.5444 51.0938 28.5938 52.1431 28.5938 53.4375C28.5938 54.7319 27.5444 55.7812 26.25 55.7812C24.9556 55.7812 23.9063 54.7319 23.9062 53.4375C23.9062 52.1431 24.9556 51.0938 26.25 51.0938Z" fill="#111111"/>
<path d="M93.75 51.0938C95.0444 51.0938 96.0938 52.1431 96.0938 53.4375C96.0938 54.7319 95.0444 55.7812 93.75 55.7812C92.4556 55.7812 91.4062 54.7319 91.4062 53.4375C91.4062 52.1431 92.4556 51.0938 93.75 51.0938Z" fill="#111111"/>
<path d="M26.25 64.2188C27.5444 64.2188 28.5938 65.2681 28.5938 66.5625C28.5938 67.8569 27.5444 68.9062 26.25 68.9062C24.9556 68.9062 23.9063 67.8569 23.9062 66.5625C23.9062 65.2681 24.9556 64.2188 26.25 64.2188Z" fill="#111111"/>
<path d="M93.75 64.2188C95.0444 64.2188 96.0938 65.2681 96.0938 66.5625C96.0938 67.8569 95.0444 68.9062 93.75 68.9062C92.4556 68.9062 91.4062 67.8569 91.4062 66.5625C91.4062 65.2681 92.4556 64.2188 93.75 64.2188Z" fill="#111111"/>
<path fill-rule="evenodd" clip-rule="evenodd" d="M59.0625 7.5C59.0625 6.98223 59.4822 6.5625 60 6.5625C60.5178 6.5625 60.9375 6.98223 60.9375 7.5C60.9375 8.01777 60.5178 8.4375 60 8.4375C59.4822 8.4375 59.0625 8.01777 59.0625 7.5ZM47.8125 14.0625C47.8125 13.5447 48.2322 13.125 48.75 13.125C49.2678 13.125 49.6875 13.5447 49.6875 14.0625C49.6875 14.5803 49.2678 15 48.75 15C48.2322 15 47.8125 14.5803 47.8125 14.0625ZM70.3125 14.0625C70.3125 13.5447 70.7322 13.125 71.25 13.125C71.7678 13.125 72.1875 13.5447 72.1875 14.0625C72.1875 14.5803 71.7678 15 71.25 15C70.7322 15 70.3125 14.5803 70.3125 14.0625ZM36.5625 20.625C36.5625 20.1072 36.9822 19.6875 37.5 19.6875C38.0178 19.6875 38.4375 20.1072 38.4375 20.625C38.4375 21.1428 38.0178 21.5625 37.5 21.5625C36.9822 21.5625 36.5625 21.1428 36.5625 20.625ZM81.5625 20.625C81.5625 20.1072 81.9822 19.6875 82.5 19.6875C83.0178 19.6875 83.4375 20.1072 83.4375 20.625C83.4375 21.1428 83.0178 21.5625 82.5 21.5625C81.9822 21.5625 81.5625 21.1428 81.5625 20.625ZM25.3125 27.1875C25.3125 26.6697 25.7322 26.25 26.25 26.25C26.7678 26.25 27.1875 26.6697 27.1875 27.1875C27.1875 27.7053 26.7678 28.125 26.25 28.125C25.7322 28.125 25.3125 27.7053 25.3125 27.1875ZM92.8125 27.1875C92.8125 26.6697 93.2322 26.25 93.75 26.25C94.2678 26.25 94.6875 26.6697 94.6875 27.1875C94.6875 27.7053 94.2678 28.125 93.75 28.125C93.2322 28.125 92.8125 27.7053 92.8125 27.1875ZM14.0625 33.75C14.0625 33.2322 14.4822 32.8125 15 32.8125C15.5178 32.8125 15.9375 33.2322 15.9375 33.75C15.9375 34.2678 15.5178 34.6875 15 34.6875C14.4822 34.6875 14.0625 34.2678 14.0625 33.75ZM104.062 33.75C104.062 33.2322 104.482 32.8125 105 32.8125C105.518 32.8125 105.938 33.2322 105.938 33.75C105.938 34.2678 105.518 34.6875 105 34.6875C104.482 34.6875 104.062 34.2678 104.062 33.75ZM14.0625 46.875C14.0625 46.3572 14.4822 45.9375 15 45.9375C15.5178 45.9375 15.9375 46.3572 15.9375 46.875C15.9375 47.3928 15.5178 47.8125 15 47.8125C14.4822 47.8125 14.0625 47.3928 14.0625 46.875ZM104.062 46.875C104.062 46.3572 104.482 45.9375 105 45.9375C105.518 45.9375 105.938 46.3572 105.938 46.875C105.938 47.3928 105.518 47.8125 105 47.8125C104.482 47.8125 104.062 47.3928 104.062 46.875ZM14.0625 60C14.0625 59.4822 14.4822 59.0625 15 59.0625C15.5178 59.0625 15.9375 59.4822 15.9375 60C15.9375 60.5178 15.5178 60.9375 15 60.9375C14.4822 60.9375 14.0625 60.5178 14.0625 60ZM104.062 60C104.062 59.4822 104.482 59.0625 105 59.0625C105.518 59.0625 105.938 59.4822 105.938 60C105.938 60.5178 105.518 60.9375 105 60.9375C104.482 60.9375 104.062 60.5178 104.062 60ZM14.0625 73.125C14.0625 72.6072 14.4822 72.1875 15 72.1875C15.5178 72.1875 15.9375 72.6072 15.9375 73.125C15.9375 73.6428 15.5178 74.0625 15 74.0625C14.4822 74.0625 14.0625 73.6428 14.0625 73.125ZM59.0625 73.125C59.0625 72.6072 59.4822 72.1875 60 72.1875C60.5178 72.1875 60.9375 72.6072 60.9375 73.125C60.9375 73.6428 60.5178 74.0625 60 74.0625C59.4822 74.0625 59.0625 73.6428 59.0625 73.125ZM104.062 73.125C104.062 72.6072 104.482 72.1875 105 72.1875C105.518 72.1875 105.938 72.6072 105.938 73.125C105.938 73.6428 105.518 74.0625 105 74.0625C104.482 74.0625 104.062 73.6428 104.062 73.125ZM47.8125 79.6875C47.8125 79.1697 48.2322 78.75 48.75 78.75C49.2678 78.75 49.6875 79.1697 49.6875 79.6875C49.6875 80.2053 49.2678 80.625 48.75 80.625C48.2322 80.625 47.8125 80.2053 47.8125 79.6875ZM70.3125 79.6875C70.3125 79.1697 70.7322 78.75 71.25 78.75C71.7678 78.75 72.1875 79.1697 72.1875 79.6875C72.1875 80.2053 71.7678 80.625 71.25 80.625C70.7322 80.625 70.3125 80.2053 70.3125 79.6875ZM14.0625 86.25C14.0625 85.7322 14.4822 85.3125 15 85.3125C15.5178 85.3125 15.9375 85.7322 15.9375 86.25C15.9375 86.7678 15.5178 87.1875 15 87.1875C14.4822 87.1875 14.0625 86.7678 14.0625 86.25ZM36.5625 86.25C36.5625 85.7322 36.9822 85.3125 37.5 85.3125C38.0178 85.3125 38.4375 85.7322 38.4375 86.25C38.4375 86.7678 38.0178 87.1875 37.5 87.1875C36.9822 87.1875 36.5625 86.7678 36.5625 86.25ZM59.0625 86.25C59.0625 85.7322 59.4822 85.3125 60 85.3125C60.5178 85.3125 60.9375 85.7322 60.9375 86.25C60.9375 86.7678 60.5178 87.1875 60 87.1875C59.4822 87.1875 59.0625 86.7678 59.0625 86.25ZM81.5625 86.25C81.5625 85.7322 81.9822 85.3125 82.5 85.3125C83.0178 85.3125 83.4375 85.7322 83.4375 86.25C83.4375 86.7678 83.0178 87.1875 82.5 87.1875C81.9822 87.1875 81.5625 86.7678 81.5625 86.25ZM104.062 86.25C104.062 85.7322 104.482 85.3125 105 85.3125C105.518 85.3125 105.938 85.7322 105.938 86.25C105.938 86.7678 105.518 87.1875 105 87.1875C104.482 87.1875 104.062 86.7678 104.062 86.25ZM25.3125 92.8125C25.3125 92.2947 25.7322 91.875 26.25 91.875C26.7678 91.875 27.1875 92.2947 27.1875 92.8125C27.1875 93.3303 26.7678 93.75 26.25 93.75C25.7322 93.75 25.3125 93.3303 25.3125 92.8125ZM47.8125 92.8125C47.8125 92.2947 48.2322 91.875 48.75 91.875C49.2678 91.875 49.6875 92.2947 49.6875 92.8125C49.6875 93.3303 49.2678 93.75 48.75 93.75C48.2322 93.75 47.8125 93.3303 47.8125 92.8125ZM70.3125 92.8125C70.3125 92.2947 70.7322 91.875 71.25 91.875C71.7678 91.875 72.1875 92.2947 72.1875 92.8125C72.1875 93.3303 71.7678 93.75 71.25 93.75C70.7322 93.75 70.3125 93.3303 70.3125 92.8125ZM92.8125 92.8125C92.8125 92.2947 93.2322 91.875 93.75 91.875C94.2678 91.875 94.6875 92.2947 94.6875 92.8125C94.6875 93.3303 94.2678 93.75 93.75 93.75C93.2322 93.75 92.8125 93.3303 92.8125 92.8125ZM36.5625 99.375C36.5625 98.8572 36.9822 98.4375 37.5 98.4375C38.0178 98.4375 38.4375 98.8572 38.4375 99.375C38.4375 99.8928 38.0178 100.312 37.5 100.312C36.9822 100.312 36.5625 99.8928 36.5625 99.375ZM59.0625 99.375C59.0625 98.8572 59.4822 98.4375 60 98.4375C60.5178 98.4375 60.9375 98.8572 60.9375 99.375C60.9375 99.8928 60.5178 100.312 60 100.312C59.4822 100.312 59.0625 99.8928 59.0625 99.375ZM81.5625 99.375C81.5625 98.8572 81.9822 98.4375 82.5 98.4375C83.0178 98.4375 83.4375 98.8572 83.4375 99.375C83.4375 99.8928 83.0178 100.312 82.5 100.312C81.9822 100.312 81.5625 99.8928 81.5625 99.375ZM47.8125 105.938C47.8125 105.42 48.2322 105 48.75 105C49.2678 105 49.6875 105.42 49.6875 105.938C49.6875 106.455 49.2678 106.875 48.75 106.875C48.2322 106.875 47.8125 106.455 47.8125 105.938ZM70.3125 105.938C70.3125 105.42 70.7322 105 71.25 105C71.7678 105 72.1875 105.42 72.1875 105.938C72.1875 106.455 71.7678 106.875 71.25 106.875C70.7322 106.875 70.3125 106.455 70.3125 105.938ZM59.0625 112.5C59.0625 111.982 59.4822 111.562 60 111.562C60.5178 111.562 60.9375 111.982 60.9375 112.5C60.9375 113.018 60.5178 113.438 60 113.438C59.4822 113.438 59.0625 113.018 59.0625 112.5Z" fill="#111111"/>
</svg>
