<svg width="118" height="20" viewBox="0 0 118 20" fill="none" xmlns="http://www.w3.org/2000/svg">
<path d="M22.8994 10L18.3772 7.5L23.8038 4.5L31.2653 8.625V11.375L23.8038 15.5L18.3772 12.5L22.8994 10Z" fill="url(#paint0_linear)"/>
<path d="M12.9507 12.5L8.42857 10L12.9507 7.5L7.52415 4.5L0.0626526 8.625V11.375L7.52415 15.5L12.9507 12.5Z" fill="url(#paint1_linear)"/>
<path d="M15.664 15L20.1861 17.5L15.664 20L11.1418 17.5L15.664 15Z" fill="url(#paint2_linear)"/>
<path d="M20.1861 2.5L15.664 0L11.1418 2.5L15.664 5L20.1861 2.5Z" fill="url(#paint3_linear)"/>
<path d="M44.9277 14.12C44.0338 14.12 43.2276 13.936 42.5092 13.568C41.7907 13.192 41.2269 12.676 40.8175 12.02C40.4082 11.356 40.2035 10.616 40.2035 9.80001C40.2035 8.98401 40.4082 8.24801 40.8175 7.59201C41.2269 6.92801 41.7907 6.41201 42.5092 6.04401C43.2276 5.66801 44.0338 5.48001 44.9277 5.48001C45.8215 5.48001 46.6277 5.66801 47.3461 6.04401C48.0646 6.41201 48.6285 6.92401 49.0378 7.58001C49.4472 8.23601 49.6518 8.97601 49.6518 9.80001C49.6518 10.624 49.4472 11.364 49.0378 12.02C48.6285 12.676 48.0646 13.192 47.3461 13.568C46.6277 13.936 45.8215 14.12 44.9277 14.12ZM44.9277 12.752C45.5124 12.752 46.0387 12.628 46.5066 12.38C46.9744 12.124 47.342 11.772 47.6093 11.324C47.8766 10.868 48.0103 10.36 48.0103 9.80001C48.0103 9.24001 47.8766 8.73601 47.6093 8.28801C47.342 7.83201 46.9744 7.48001 46.5066 7.23201C46.0387 6.97601 45.5124 6.84801 44.9277 6.84801C44.3429 6.84801 43.8166 6.97601 43.3488 7.23201C42.8809 7.48001 42.5134 7.83201 42.246 8.28801C41.9787 8.73601 41.845 9.24001 41.845 9.80001C41.845 10.36 41.9787 10.868 42.246 11.324C42.5134 11.772 42.8809 12.124 43.3488 12.38C43.8166 12.628 44.3429 12.752 44.9277 12.752Z" fill="black"/>
<path d="M54.6867 7.52001C55.3384 7.52001 55.919 7.65601 56.4286 7.92801C56.9465 8.20001 57.3517 8.58401 57.6441 9.08001C57.9364 9.57601 58.0826 10.148 58.0826 10.796C58.0826 11.444 57.9364 12.02 57.6441 12.524C57.3517 13.02 56.9465 13.404 56.4286 13.676C55.919 13.948 55.3384 14.084 54.6867 14.084C53.7845 14.084 53.0703 13.796 52.544 13.22V16.328H50.9776V7.59201H52.4688V8.43201C52.7277 8.12801 53.0452 7.90001 53.4211 7.74801C53.8054 7.59601 54.2273 7.52001 54.6867 7.52001ZM54.5113 12.8C55.0877 12.8 55.5597 12.616 55.9273 12.248C56.3032 11.88 56.4912 11.396 56.4912 10.796C56.4912 10.196 56.3032 9.71201 55.9273 9.34401C55.5597 8.97601 55.0877 8.79201 54.5113 8.79201C54.1354 8.79201 53.7971 8.87601 53.4963 9.04401C53.1956 9.20401 52.9575 9.43601 52.782 9.74001C52.6066 10.044 52.5189 10.396 52.5189 10.796C52.5189 11.196 52.6066 11.548 52.782 11.852C52.9575 12.156 53.1956 12.392 53.4963 12.56C53.7971 12.72 54.1354 12.8 54.5113 12.8Z" fill="black"/>
<path d="M65.6081 10.832C65.6081 10.936 65.5997 11.084 65.583 11.276H60.3325C60.4244 11.748 60.6625 12.124 61.0468 12.404C61.4394 12.676 61.924 12.812 62.5004 12.812C63.2355 12.812 63.8412 12.58 64.3174 12.116L65.157 13.04C64.8562 13.384 64.4761 13.644 64.0166 13.82C63.5572 13.996 63.0392 14.084 62.4628 14.084C61.7277 14.084 61.0802 13.944 60.5205 13.664C59.9608 13.384 59.5264 12.996 59.2173 12.5C58.9165 11.996 58.7662 11.428 58.7662 10.796C58.7662 10.172 58.9124 9.61201 59.2048 9.11601C59.5055 8.61201 59.919 8.22001 60.4453 7.94001C60.9716 7.66001 61.5648 7.52001 62.2247 7.52001C62.8763 7.52001 63.4569 7.66001 63.9665 7.94001C64.4845 8.21201 64.8855 8.60001 65.1695 9.10401C65.4619 9.60001 65.6081 10.176 65.6081 10.832ZM62.2247 8.72001C61.7235 8.72001 61.2974 8.86401 60.9466 9.15201C60.604 9.43201 60.3952 9.80801 60.32 10.28H64.1169C64.0501 9.81601 63.8454 9.44001 63.5029 9.15201C63.1604 8.86401 62.7343 8.72001 62.2247 8.72001Z" fill="black"/>
<path d="M70.6589 7.52001C71.5027 7.52001 72.1794 7.75601 72.689 8.22801C73.1986 8.70001 73.4533 9.40001 73.4533 10.328V14H71.887V10.52C71.887 9.96001 71.7491 9.54001 71.4735 9.26001C71.1978 8.97201 70.8051 8.82801 70.2955 8.82801C69.7191 8.82801 69.2638 8.99601 68.9297 9.33201C68.5955 9.66001 68.4284 10.136 68.4284 10.76V14H66.8621V7.59201H68.3532V8.42001C68.6122 8.12401 68.938 7.90001 69.3307 7.74801C69.7233 7.59601 70.1661 7.52001 70.6589 7.52001Z" fill="black"/>
<path d="M78.0594 14.12C77.3827 14.12 76.7269 14.028 76.092 13.844C75.4655 13.66 74.9684 13.416 74.6008 13.112L75.1647 11.9C75.5239 12.172 75.9625 12.396 76.4805 12.572C77.0068 12.74 77.5331 12.824 78.0594 12.824C78.711 12.824 79.1955 12.724 79.513 12.524C79.8388 12.324 80.0017 12.06 80.0017 11.732C80.0017 11.492 79.9098 11.296 79.726 11.144C79.5505 10.984 79.325 10.86 79.0493 10.772C78.7736 10.684 78.3977 10.584 77.9215 10.472C77.2532 10.32 76.7102 10.168 76.2925 10.016C75.8832 9.86401 75.5281 9.62801 75.2274 9.30801C74.935 8.98001 74.7888 8.54001 74.7888 7.98801C74.7888 7.52401 74.9183 7.10401 75.1772 6.72801C75.4446 6.34401 75.8414 6.04001 76.3677 5.81601C76.9023 5.59201 77.5539 5.48001 78.3225 5.48001C78.8572 5.48001 79.3835 5.54401 79.9014 5.67201C80.4194 5.80001 80.8663 5.98401 81.2422 6.22401L80.7285 7.43601C80.3442 7.22001 79.9432 7.05601 79.5255 6.94401C79.1078 6.83201 78.7026 6.77601 78.31 6.77601C77.6667 6.77601 77.1864 6.88001 76.8689 7.08801C76.5598 7.29601 76.4053 7.57201 76.4053 7.91601C76.4053 8.15601 76.493 8.35201 76.6684 8.50401C76.8522 8.65601 77.0819 8.77601 77.3576 8.86401C77.6333 8.95201 78.0092 9.05201 78.4854 9.16401C79.137 9.30801 79.6717 9.46001 80.0894 9.62001C80.5071 9.77201 80.8621 10.008 81.1545 10.328C81.4553 10.648 81.6056 11.08 81.6056 11.624C81.6056 12.088 81.472 12.508 81.2046 12.884C80.9457 13.26 80.5488 13.56 80.0142 13.784C79.4795 14.008 78.8279 14.12 78.0594 14.12Z" fill="black"/>
<path d="M89.3611 7.59201V16.328H87.7948V13.22C87.2685 13.796 86.5542 14.084 85.652 14.084C85.0003 14.084 84.4156 13.948 83.8976 13.676C83.388 13.404 82.987 13.02 82.6946 12.524C82.4106 12.028 82.2686 11.452 82.2686 10.796C82.2686 10.148 82.4148 9.57601 82.7072 9.08001C82.9996 8.58401 83.4006 8.20001 83.9101 7.92801C84.4197 7.65601 85.0003 7.52001 85.652 7.52001C86.1114 7.52001 86.5291 7.59601 86.9051 7.74801C87.2893 7.90001 87.611 8.12801 87.8699 8.43201V7.59201H89.3611ZM85.8274 12.8C86.4038 12.8 86.88 12.616 87.2559 12.248C87.6318 11.88 87.8198 11.396 87.8198 10.796C87.8198 10.196 87.6318 9.71201 87.2559 9.34401C86.88 8.97601 86.4038 8.79201 85.8274 8.79201C85.251 8.79201 84.7748 8.97601 84.3989 9.34401C84.0313 9.71201 83.8475 10.196 83.8475 10.796C83.8475 11.396 84.0313 11.88 84.3989 12.248C84.7748 12.616 85.251 12.8 85.8274 12.8Z" fill="black"/>
<path d="M97.6384 7.59201V14H96.1472V13.184C95.8966 13.472 95.5833 13.696 95.2074 13.856C94.8315 14.008 94.4263 14.084 93.9919 14.084C93.098 14.084 92.3921 13.848 91.8742 13.376C91.3646 12.896 91.1098 12.188 91.1098 11.252V7.59201H92.6762V11.048C92.6762 11.624 92.8098 12.056 93.0771 12.344C93.3528 12.624 93.7413 12.764 94.2425 12.764C94.8022 12.764 95.245 12.6 95.5708 12.272C95.905 11.936 96.072 11.456 96.072 10.832V7.59201H97.6384Z" fill="black"/>
<path d="M101.995 7.52001C102.981 7.52001 103.733 7.74801 104.251 8.20401C104.777 8.65201 105.04 9.33201 105.04 10.244V14H103.561V13.22C103.369 13.5 103.094 13.716 102.734 13.868C102.383 14.012 101.957 14.084 101.456 14.084C100.955 14.084 100.516 14.004 100.14 13.844C99.7645 13.676 99.4721 13.448 99.2632 13.16C99.0627 12.864 98.9625 12.532 98.9625 12.164C98.9625 11.588 99.1839 11.128 99.6266 10.784C100.078 10.432 100.784 10.256 101.744 10.256H103.474V10.16C103.474 9.71201 103.332 9.36801 103.048 9.12801C102.772 8.88801 102.358 8.76801 101.807 8.76801C101.431 8.76801 101.059 8.82401 100.692 8.93601C100.333 9.04801 100.028 9.20401 99.777 9.40401L99.163 8.31201C99.5139 8.05601 99.9357 7.86001 100.429 7.72401C100.921 7.58801 101.444 7.52001 101.995 7.52001ZM101.782 12.992C102.175 12.992 102.521 12.908 102.822 12.74C103.131 12.564 103.348 12.316 103.474 11.996V11.252H101.857C100.955 11.252 100.504 11.536 100.504 12.104C100.504 12.376 100.617 12.592 100.842 12.752C101.068 12.912 101.381 12.992 101.782 12.992Z" fill="black"/>
<path d="M108.291 8.52801C108.742 7.85601 109.536 7.52001 110.672 7.52001V8.94801C110.538 8.92401 110.417 8.91201 110.308 8.91201C109.698 8.91201 109.222 9.08401 108.88 9.42801C108.537 9.76401 108.366 10.252 108.366 10.892V14H106.8V7.59201H108.291V8.52801Z" fill="black"/>
<path d="M117.979 10.832C117.979 10.936 117.971 11.084 117.954 11.276H112.704C112.796 11.748 113.034 12.124 113.418 12.404C113.811 12.676 114.295 12.812 114.872 12.812C115.607 12.812 116.212 12.58 116.689 12.116L117.528 13.04C117.227 13.384 116.847 13.644 116.388 13.82C115.928 13.996 115.41 14.084 114.834 14.084C114.099 14.084 113.451 13.944 112.892 13.664C112.332 13.384 111.898 12.996 111.588 12.5C111.288 11.996 111.137 11.428 111.137 10.796C111.137 10.172 111.284 9.61201 111.576 9.11601C111.877 8.61201 112.29 8.22001 112.816 7.94001C113.343 7.66001 113.936 7.52001 114.596 7.52001C115.247 7.52001 115.828 7.66001 116.338 7.94001C116.856 8.21201 117.257 8.60001 117.541 9.10401C117.833 9.60001 117.979 10.176 117.979 10.832ZM114.596 8.72001C114.095 8.72001 113.669 8.86401 113.318 9.15201C112.975 9.43201 112.766 9.80801 112.691 10.28H116.488C116.421 9.81601 116.217 9.44001 115.874 9.15201C115.531 8.86401 115.105 8.72001 114.596 8.72001Z" fill="black"/>
<defs>
<linearGradient id="paint0_linear" x1="30.6214" y1="10" x2="0.0626522" y2="10" gradientUnits="userSpaceOnUse">
<stop stop-color="#04D2C5"/>
<stop offset="1" stop-color="#6848FF"/>
</linearGradient>
<linearGradient id="paint1_linear" x1="30.6214" y1="10" x2="0.0626522" y2="10" gradientUnits="userSpaceOnUse">
<stop stop-color="#04D2C5"/>
<stop offset="1" stop-color="#6848FF"/>
</linearGradient>
<linearGradient id="paint2_linear" x1="30.6214" y1="10" x2="0.0626522" y2="10" gradientUnits="userSpaceOnUse">
<stop stop-color="#04D2C5"/>
<stop offset="1" stop-color="#6848FF"/>
</linearGradient>
<linearGradient id="paint3_linear" x1="30.6214" y1="10" x2="0.0626522" y2="10" gradientUnits="userSpaceOnUse">
<stop stop-color="#04D2C5"/>
<stop offset="1" stop-color="#6848FF"/>
</linearGradient>
</defs>
</svg>
