<svg width="120" height="20" viewBox="0 0 120 20" fill="none" xmlns="http://www.w3.org/2000/svg">
<path d="M13.5819 9.46779C13.1984 6.8254 10.8978 5.19141 6.98266 5.19141C3.01707 5.19141 0.403622 6.89076 0.413712 9.65453C0.403622 11.8021 1.86675 13.1933 4.89392 13.7535L7.578 14.2484C8.93013 14.5005 9.54566 14.958 9.56584 15.6769C9.54566 16.5266 8.54669 17.1335 7.0432 17.1335C5.50944 17.1335 4.49029 16.5266 4.22794 15.3595L0 15.5649C0.403622 18.31 2.92626 20 7.03311 20C11.0492 20 13.925 18.1046 13.935 15.2754C13.925 13.2026 12.4618 11.9608 9.45484 11.3912L6.64967 10.8683C5.20672 10.5789 4.67192 10.1214 4.68201 9.43044C4.67192 8.57143 5.72134 8.0112 7.05329 8.0112C8.54669 8.0112 9.43466 8.76751 9.64656 9.69188L13.5819 9.46779Z" fill="#111111"/>
<path d="M23.9387 5.37815H21.0225V1.94211H16.7239V5.37815H14.6049V8.36601H16.7239V15.8357C16.7037 18.6461 18.7723 20.0373 21.8903 19.916C23.0002 19.8786 23.7873 19.6732 24.2212 19.5425L23.5451 16.5826C23.3332 16.62 22.8791 16.7134 22.4755 16.7134C21.6178 16.7134 21.0225 16.4146 21.0225 15.3128V8.36601H23.9387V5.37815Z" fill="#111111"/>
<path d="M30.2113 19.9907C32.5018 19.9907 33.9851 19.0663 34.7419 17.7311H34.863V19.7199H38.9396V10.0467C38.9396 6.62932 35.8115 5.19141 32.3606 5.19141C28.6472 5.19141 26.2053 6.83473 25.61 9.44911L29.5857 9.7479C29.8783 8.79552 30.7965 8.09524 32.3404 8.09524C33.8035 8.09524 34.641 8.77684 34.641 9.95331V10.0093C34.641 10.9337 33.5815 11.0551 30.8873 11.2979C27.8198 11.5593 25.0651 12.5117 25.0651 15.7143C25.0651 18.5528 27.2547 19.9907 30.2113 19.9907ZM31.4423 17.2456C30.1205 17.2456 29.1719 16.676 29.1719 15.5836C29.1719 14.4631 30.1709 13.9122 31.6845 13.7162C32.6229 13.5948 34.1567 13.3894 34.6713 13.0719V14.5938C34.6713 16.0971 33.3293 17.2456 31.4423 17.2456Z" fill="#111111"/>
<path d="M49.5713 5.37815H46.6552V1.94211H42.3566V5.37815H40.2376V8.36601H42.3566V15.8357C42.3364 18.6461 44.405 20.0373 47.523 19.916C48.6329 19.8786 49.42 19.6732 49.8539 19.5425L49.1778 16.5826C48.9659 16.62 48.5118 16.7134 48.1082 16.7134C47.2505 16.7134 46.6552 16.4146 46.6552 15.3128V8.36601H49.5713V5.37815Z" fill="#111111"/>
<path d="M58.3212 20C62.1556 20 64.7388 18.2726 65.3442 15.6116L61.3685 15.3688C60.9346 16.4613 59.8247 17.0308 58.3918 17.0308C56.2425 17.0308 54.8803 15.7143 54.8803 13.5761V13.5668H65.435V12.4743C65.435 7.60037 62.2464 5.19141 58.1496 5.19141C53.5887 5.19141 50.6322 8.18861 50.6322 12.6144C50.6322 17.1615 53.5484 20 58.3212 20ZM54.8803 11.1018C54.9711 9.46779 56.3132 8.1606 58.2203 8.1606C60.087 8.1606 61.3786 9.39309 61.3887 11.1018H54.8803Z" fill="#111111"/>
<path d="M67.7572 19.7199H70.1386V10.7563C70.1386 8.65546 71.7934 7.17087 73.6501 7.17087C75.4563 7.17087 76.7176 8.2633 76.7176 9.89729V19.7199H79.1393V10.3828C79.1393 8.53408 80.3906 7.17087 82.5701 7.17087C84.2653 7.17087 85.7184 8.00187 85.7184 10.1214V19.7199H88.0997V10.1214C88.0997 6.7507 86.1422 5.19141 83.3774 5.19141C81.1574 5.19141 79.5329 6.13445 78.7357 7.61905H78.5743C77.8074 6.08777 76.4552 5.19141 74.417 5.19141C72.3988 5.19141 70.9054 6.08777 70.2597 7.61905H70.0578V5.37815H67.7572V19.7199Z" fill="#111111"/>
<path d="M91.5066 19.7199H93.888V5.37815H91.5066V19.7199ZM92.7175 2.98786C93.6458 2.98786 94.4127 2.31559 94.4127 1.49393C94.4127 0.672269 93.6458 0 92.7175 0C91.7892 0 91.0223 0.672269 91.0223 1.49393C91.0223 2.31559 91.7892 2.98786 92.7175 2.98786Z" fill="#111111"/>
<path d="M99.6839 11.0924C99.6839 8.5901 101.359 7.17087 103.639 7.17087C105.849 7.17087 107.191 8.50607 107.191 10.7563V19.7199H109.573V10.6069C109.573 6.94678 107.464 5.19141 104.326 5.19141C101.984 5.19141 100.531 6.16247 99.8049 7.61905H99.6031V5.37815H97.3025V19.7199H99.6839V11.0924Z" fill="#111111"/>
<path d="M119.717 5.37815H116.408V1.94211H114.026V5.37815H111.685V7.24556H114.026V16.2092C114.026 18.7115 116.206 19.9066 118.224 19.9066C119.112 19.9066 119.677 19.7572 120 19.6452L119.516 17.6657C119.314 17.7031 118.991 17.7778 118.466 17.7778C117.417 17.7778 116.408 17.479 116.408 15.6116V7.24556H119.717V5.37815Z" fill="#111111"/>
</svg>
