<svg
        width="24"
        height="24"
        viewBox="0 0 24 24"
        fill="none"
        xmlns="http://www.w3.org/2000/svg"
>
    <circle cx="12" cy="12" r="12" fill="url(#paint0_linear)"/>
    <path
            d="M16.1574 12L13.5591 10.5L16.677 8.7L20.9642 11.175V12.825L16.677 15.3L13.5591 13.5L16.1574 12Z"
            fill="white"
    />
    <path
            d="M10.4411 13.5L7.84281 12L10.4411 10.5L7.32315 8.7L3.03595 11.175V12.825L7.32315 15.3L10.4411 13.5Z"
            fill="white"
    />
    <path
            d="M12.0001 15L14.5984 16.5L12.0001 18L9.40179 16.5L12.0001 15Z"
            fill="white"
    />
    <path
            d="M14.5984 7.5L12.0001 6L9.40179 7.5L12.0001 9L14.5984 7.5Z"
            fill="white"
    />
    <defs>
        <linearGradient
                id="paint0_linear"
                x1="24"
                y1="2.14614e-06"
                x2="5.00716e-06"
                y2="24"
                gradientUnits="userSpaceOnUse"
        >
            <stop stop-color="#04D2C5"/>
            <stop offset="1" stop-color="#6848FF"/>
        </linearGradient>
    </defs>
</svg>
