<svg width="60" height="60" viewBox="0 0 60 60" fill="none" xmlns="http://www.w3.org/2000/svg">
<g clip-path="url(#clip0)">
<path d="M30 60C46.5685 60 60 46.5685 60 30C60 13.4315 46.5685 0 30 0C13.4315 0 0 13.4315 0 30C0 46.5685 13.4315 60 30 60Z" fill="#3C2A77"/>
<path d="M37.0628 10.684C37.0628 10.9651 37.0625 11.2461 37.0622 11.5271C37.0612 12.3702 37.0602 13.2132 37.068 14.0563C37.068 14.2677 37.0114 14.3399 36.7956 14.3347C36.6021 14.3274 36.4086 14.3293 36.2151 14.3311C35.9975 14.3332 35.7798 14.3353 35.5622 14.3244C35.3155 14.3141 35.2538 14.4069 35.2641 14.6338C35.2733 14.8658 35.2715 15.0978 35.2697 15.3299C35.2684 15.4841 35.2672 15.6397 35.2692 15.7939C35.2692 15.9383 35.2333 15.9899 35.0791 15.9744C33.6801 15.8238 32.2785 15.8355 30.878 15.8471C30.3136 15.8519 29.7483 15.8566 29.1844 15.8507C28.9583 15.8507 28.8864 15.7836 28.8966 15.5567C28.9121 15.2164 28.9069 14.8709 28.9018 14.5255C28.8966 14.3708 28.9532 14.3141 29.1125 14.3141C29.2997 14.3185 29.4869 14.3172 29.6741 14.316C29.9235 14.3143 30.1735 14.3126 30.423 14.3244C30.6594 14.3347 30.7056 14.2522 30.7056 14.0305C30.7005 11.8184 30.7005 9.60121 30.7005 7.38915C30.7005 7.22146 30.7005 7.13758 30.7424 7.09574C30.7842 7.05399 30.8677 7.05399 31.0345 7.05399C31.5137 7.05399 31.9925 7.0543 32.4712 7.05463C33.907 7.0556 35.3429 7.05656 36.7802 7.04883C37.0011 7.04883 37.0731 7.10039 37.0731 7.33242C37.0608 8.22772 37.0616 9.12303 37.0624 10.0157C37.0626 10.2386 37.0628 10.4614 37.0628 10.684Z" fill="#EA298A"/>
<path fill-rule="evenodd" clip-rule="evenodd" d="M36.4769 34.0447C36.4321 34.0368 36.3828 34.0281 36.3587 33.9596C36.4358 33.9338 36.5078 33.908 36.5849 33.8874C38.6662 33.1604 40.3005 31.9022 41.2975 29.8913C41.3643 29.7572 41.4465 29.7314 41.5801 29.7314C41.8422 29.734 42.1031 29.734 42.3639 29.734L42.6625 29.7342C42.7134 29.7342 42.7644 29.7343 42.8154 29.7345C42.8507 29.7346 42.8859 29.7348 42.9212 29.7349C42.9966 29.7353 43.072 29.7358 43.1476 29.7366C43.3018 29.7417 43.3789 29.6902 43.4354 29.5458C43.5485 29.2571 43.6512 28.9683 43.7283 28.6692C44.0521 27.4317 43.975 26.1839 43.7746 24.9412C43.2607 21.7701 41.5493 19.5374 38.5583 18.336C36.7545 17.609 34.8581 17.3563 32.9309 17.3511C28.844 17.3388 24.7604 17.3396 20.6748 17.3404C19.6541 17.3406 18.6319 17.3408 17.611 17.3408C17.5886 17.3408 17.5673 17.3407 17.5471 17.3405C17.5325 17.3404 17.5184 17.3403 17.5048 17.3401L17.4725 17.3397C17.3188 17.3376 17.2435 17.3367 17.2074 17.3738C17.1727 17.4095 17.1742 17.4804 17.1771 17.6196C17.1776 17.6413 17.1781 17.6653 17.1785 17.6904C17.179 17.7193 17.1793 17.7505 17.1793 17.7843C17.1793 18.7532 17.179 19.7224 17.1787 20.6918V20.6975C17.1777 23.6057 17.1767 26.5153 17.1844 29.4221C17.1896 29.6747 17.1176 29.7469 16.8709 29.7366C16.598 29.7248 16.3233 29.7265 16.0489 29.7282C15.8431 29.7294 15.6367 29.7307 15.432 29.7263C15.2521 29.7211 15.1904 29.7778 15.1904 29.9583C15.1956 32.289 15.1956 34.6248 15.1904 36.9606C15.1904 37.1514 15.2624 37.1875 15.432 37.1875C15.6534 37.1828 15.8749 37.1834 16.0963 37.184C16.3627 37.1848 16.6303 37.1856 16.8966 37.1771C17.1228 37.1668 17.1844 37.2287 17.1844 37.4608C17.1793 38.394 17.1793 39.326 17.1793 40.2574C17.1793 41.1888 17.1793 42.1195 17.1742 43.0502C17.1742 43.2925 17.2255 43.3699 17.4825 43.3699C19.7489 43.3596 22.0153 43.3596 24.2817 43.3699C24.5232 43.375 24.6003 43.3132 24.6003 43.0605C24.5941 41.9385 24.5935 40.8165 24.5929 39.6946V39.6914C24.5925 38.9427 24.5921 38.194 24.59 37.4453C24.5849 37.2803 24.6003 37.1823 24.8161 37.1823C25.7155 37.1875 26.6136 37.19 27.5116 37.1926L27.5226 37.1926C28.417 37.1952 29.3114 37.1978 30.2071 37.2029C31.1733 37.2081 32.047 37.4504 32.7408 38.1826C33.1776 38.6415 33.5065 39.1726 33.8046 39.7244C34.3363 40.7212 34.7834 41.7562 35.2303 42.791L35.3669 43.1069C35.4542 43.3028 35.557 43.3647 35.7677 43.3647C38.6971 43.3596 41.6213 43.3596 44.5455 43.3596C44.7001 43.3596 44.7772 43.3596 44.8014 43.3238C44.8254 43.2882 44.7971 43.2173 44.7408 43.076C43.9493 41.1372 43.0654 39.2448 42.1506 37.3628C42.0786 37.2132 41.9862 37.172 41.832 37.1771C41.7729 37.1778 41.7138 37.1781 41.6547 37.1782C41.5185 37.1784 41.3823 37.1776 41.2461 37.1767C40.9531 37.1749 40.6602 37.173 40.3673 37.1823C40.1669 37.1926 40.0538 37.1307 39.9562 36.94C39.2058 35.5065 38.0752 34.5165 36.5129 34.0524C36.5017 34.049 36.4895 34.0469 36.4769 34.0447ZM32.2166 24.3586C31.0191 24.3431 28.6243 24.3534 28.6243 24.3534C28.6243 24.3534 25.5681 24.3482 24.7226 24.3482C24.5849 24.3482 24.5849 24.4153 24.5849 24.57C24.59 26.2045 24.59 27.8442 24.5849 29.4839C24.5849 29.6799 24.6465 29.7314 24.8367 29.7314C25.8148 29.7294 26.7929 29.729 27.771 29.7286C29.2391 29.7279 30.7073 29.7273 32.1754 29.7211C33.0234 29.716 33.748 29.3963 34.339 28.7982C35.3258 27.7978 35.3309 26.2922 34.3493 25.2867C33.7634 24.6937 33.0491 24.3689 32.2166 24.3586Z" fill="#EA298A"/>
<path d="M31.5992 44.8022C31.5995 45.2031 31.5998 45.6039 31.5998 46.0048C31.5998 47.6238 31.5998 49.2481 31.5947 50.8672C31.5947 51.0631 31.641 51.1353 31.8517 51.1353C33.8097 51.1301 35.7677 51.1301 37.7258 51.1353C37.921 51.1353 37.9673 51.0683 37.9673 50.8826C37.9622 48.9645 37.957 47.0412 37.9673 45.1179C37.9673 44.891 37.8902 44.8497 37.6846 44.8497C37.1964 44.8549 36.7095 44.8549 36.2225 44.8549C35.7356 44.8549 35.2487 44.8549 34.7605 44.8601C34.5652 44.8652 34.4778 44.7982 34.4007 44.6229C33.9382 43.571 33.4705 42.5191 32.9926 41.4775C32.6739 40.7763 32.3399 40.0802 31.8671 39.4614C31.5176 38.9973 31.0654 38.7344 30.4744 38.7137C29.723 38.6881 28.9717 38.6876 28.2212 38.6871C27.6114 38.6868 27.0021 38.6863 26.3939 38.6725C26.1163 38.6673 26.0752 38.7653 26.0752 39.0076C26.0804 39.9332 26.0804 40.8601 26.0804 41.7869C26.0804 42.7137 26.0804 43.6406 26.0855 44.5661C26.0855 44.7879 26.029 44.8601 25.7977 44.8549C25.4101 44.8505 25.0216 44.8517 24.6329 44.853C24.115 44.8547 23.5956 44.8564 23.0791 44.8446C22.8067 44.8394 22.7399 44.9271 22.7605 45.1797C22.781 45.4479 22.781 45.716 22.7605 45.979C22.745 46.2265 22.8221 46.2987 23.0739 46.2987C24.9857 46.2884 26.9026 46.2884 28.8196 46.2987C29.0662 46.2987 29.1382 46.2368 29.1382 45.9841C29.132 45.0158 29.1314 44.0474 29.1308 43.0791C29.1304 42.4335 29.13 41.7879 29.1279 41.1424C29.1279 40.9361 29.1896 40.8742 29.39 40.8794C30.0221 40.8949 30.6542 40.8949 31.2864 40.8794C31.533 40.8742 31.605 40.9361 31.605 41.1888C31.5973 42.3954 31.5982 43.5992 31.5992 44.8022Z" fill="#EA298A"/>
<path d="M22.3901 15.8397C22.6317 15.84 22.8734 15.8403 23.1151 15.8403C23.4384 15.8403 23.7624 15.8398 24.0867 15.8392H24.0901C24.7388 15.838 25.389 15.8369 26.0393 15.8403C26.2345 15.8455 26.3168 15.7939 26.3065 15.5825C26.2988 15.4226 26.3001 15.2626 26.3014 15.1033C26.3026 14.9442 26.3039 14.7858 26.2962 14.6286C26.2859 14.3966 26.3476 14.3089 26.5943 14.3192C26.8119 14.3301 27.0296 14.328 27.2472 14.326C27.4407 14.3241 27.6342 14.3222 27.8277 14.3295C28.0333 14.3347 28.0898 14.2677 28.0898 14.0666C28.0795 13.2261 28.0795 12.3856 28.0898 11.5451C28.0949 11.3337 28.0333 11.2718 27.8174 11.2718C25.8748 11.2821 23.9373 11.2821 21.9947 11.2718C21.7583 11.2718 21.7121 11.3492 21.7172 11.5657C21.7231 12.0456 21.7222 12.5255 21.7214 13.0054C21.7208 13.3656 21.7201 13.727 21.7223 14.0872C21.7275 14.2677 21.6709 14.3295 21.4911 14.3244C21.2727 14.3166 21.0542 14.3179 20.8358 14.3192C20.6174 14.3205 20.399 14.3218 20.1806 14.3141C19.9699 14.3089 19.9185 14.3862 19.9236 14.5822C19.939 14.9122 19.9442 15.237 19.9236 15.5619C19.9082 15.7991 20.0007 15.8455 20.2166 15.8455C20.9411 15.8377 21.6656 15.8387 22.3901 15.8397Z" fill="#EA298A"/>
<path d="M27.2932 28.2309C26.9695 28.2309 26.6457 28.2258 26.3219 28.2361C26.1523 28.2413 26.0752 28.1948 26.0804 28.0092C26.0906 27.3595 26.0855 26.7047 26.0804 26.055C26.0804 25.8848 26.1266 25.8126 26.3116 25.8126C26.9849 25.8229 27.6632 25.8229 28.3365 25.8229C28.4958 25.8229 28.542 25.8797 28.542 26.0344C28.5369 26.6944 28.5369 27.3544 28.542 28.0144C28.542 28.1845 28.4907 28.2413 28.3211 28.2361C27.9767 28.2206 27.6375 28.2258 27.2932 28.2309Z" fill="#EA298A"/>
</g>
<defs>
<clipPath id="clip0">
<rect width="60" height="60" fill="white"/>
</clipPath>
</defs>
</svg>
