<svg width="24" height="24" viewBox="0 0 24 24" fill="none" xmlns="http://www.w3.org/2000/svg">
<g clip-path="url(#clip0_4823_22710)">
<path d="M12 24C18.6274 24 24 18.6274 24 12C24 5.37258 18.6274 0 12 0C5.37258 0 0 5.37258 0 12C0 18.6274 5.37258 24 12 24Z" fill="#009393"/>
<path fill-rule="evenodd" clip-rule="evenodd" d="M18.0619 6.00075V8.26336H13.511V9.83211C16.7072 9.99975 19.1052 10.6883 19.123 11.5136L19.1229 13.234C19.1051 14.0593 16.7072 14.7478 13.511 14.9155V18.7654H10.4891V14.9155C7.29282 14.7478 4.89478 14.0593 4.87698 13.234L4.87711 11.5136C4.89488 10.6883 7.29282 9.99975 10.4891 9.83211V8.26336H5.93816V6.00075H18.0619ZM12 13.7335C15.411 13.7335 18.262 13.1513 18.9597 12.3738C18.368 11.7145 16.2279 11.1956 13.511 11.0531V12.6955C13.024 12.7211 12.5185 12.7345 12 12.7345C11.4816 12.7345 10.976 12.7211 10.4891 12.6955V11.0531C7.7721 11.1956 5.63199 11.7145 5.04032 12.3738C5.73805 13.1513 8.58904 13.7335 12 13.7335Z" fill="white"/>
</g>
<defs>
<clipPath id="clip0_4823_22710">
<rect width="24" height="24" fill="white"/>
</clipPath>
</defs>
</svg>
